<svg width="94" height="82" viewBox="0 0 94 82" fill="none" xmlns="http://www.w3.org/2000/svg">
<path d="M58.6789 51.1929C58.6532 51.2923 58.6594 51.4255 58.5959 51.4853C58.3887 51.6756 58.1699 51.8528 57.9408 52.0161C55.6642 53.6886 53.0312 54.8125 50.2475 55.2999C48.6029 55.5967 46.9248 55.6623 45.2619 55.4949C40.6427 55.0222 36.717 53.0837 33.5512 49.6748C31.0672 47.0007 29.5103 43.8469 28.9401 40.2495C28.2865 36.1285 28.8945 32.1898 30.901 28.4963C31.762 26.9115 32.7932 25.4425 33.9246 24.0423C34.9591 22.7623 36.0192 21.503 37.066 20.2328C37.9889 19.1126 38.8848 17.9723 39.6977 16.7687C40.9159 14.9653 41.9198 13.0573 42.5685 10.9723C43.1189 9.21433 43.4209 7.38824 43.4656 5.54689C43.5076 3.789 43.396 2.04345 43.086 0.311229C43.0714 0.228061 43.074 0.14197 43.1436 0C43.1696 0.0542539 43.196 0.108183 43.2217 0.162437C44.2532 2.32739 44.9971 4.58071 45.218 6.97796C45.4783 9.79981 44.9714 12.4943 43.7867 15.0673C43.0127 16.7389 42.0407 18.3117 40.8915 19.752C39.9361 20.956 38.9313 22.121 37.9668 23.3184C37.1116 24.3804 36.2518 25.4415 35.448 26.5422C34.3189 28.0882 33.4181 29.7626 32.8225 31.5904C32.412 32.8505 32.1719 34.1409 32.0642 35.4638C31.7302 39.5049 32.9806 43.0461 35.3673 46.2568C35.9555 47.0475 36.7066 47.6076 37.5794 48.0111C39.119 48.7232 40.4709 48.4354 41.631 47.3025C42.1264 46.8157 42.5405 46.2525 42.8573 45.6346C43.3069 44.7685 43.4136 43.867 43.1264 42.931C42.7868 41.8096 42.2346 40.7639 41.4999 39.8506C41.1289 39.3953 40.6638 39.0254 40.1365 38.7662C39.616 38.5037 39.0751 38.2766 38.553 38.0151C38.1672 37.8201 37.7934 37.6031 37.4213 37.3838C37.3152 37.3211 37.2336 37.2162 37.0494 37.0466C37.2381 37.0655 37.3097 37.0583 37.3747 37.0814C37.8419 37.2575 38.3152 37.4062 38.8152 37.4576C39.0103 37.4777 39.2055 37.4852 39.3812 37.3137C39.1209 36.9261 38.8249 36.5528 38.6005 36.1415C38.3826 35.7433 38.2072 35.3233 38.0774 34.8885C37.947 34.4317 37.8578 33.9642 37.811 33.4915C37.7602 33.0404 37.7518 32.5856 37.7859 32.1329C37.824 31.6654 37.8428 31.1859 38.0562 30.6242C38.1115 31.1593 38.1538 31.5806 38.199 32.0013C38.3022 32.973 38.4973 33.9246 38.8496 34.8391C39.1558 35.6337 39.5725 36.3641 40.1508 36.9943C40.2784 37.1334 40.3864 37.3088 40.6424 37.3419C41.0568 36.5928 41.1502 35.7725 41.2019 34.9138C41.2416 35.0051 41.2995 35.0928 41.3177 35.188C41.4517 35.9109 41.6026 36.6317 41.6973 37.3595C41.7624 37.8555 41.925 38.2603 42.3076 38.6011C43.1569 39.3558 43.8345 40.2505 44.3745 41.2514C44.5264 41.5331 44.6611 41.8336 44.9386 42.075C45.0687 41.9964 45.2122 41.9412 45.313 41.8417C45.9913 41.1728 46.6835 40.5163 47.3247 39.8132C47.8891 39.196 48.1174 38.4309 48.0403 37.5908C47.9574 36.7013 47.6526 35.9096 46.9854 35.2842C46.2674 34.611 45.6949 33.8265 45.2223 32.9675C45.1189 32.781 45.04 32.5819 44.9877 32.3753C45.4526 32.8668 45.8215 33.4473 46.4385 33.8788C46.5121 33.5263 46.4519 33.2735 46.406 33.0276C46.2661 32.2521 46.2723 31.4806 46.3911 30.7025C46.4561 30.2776 46.4678 29.8451 46.5033 29.4225C45.6926 28.7403 44.7792 28.213 44.2978 27.2484C45.0902 27.7114 45.7655 28.3741 46.7085 28.5947C47.1008 28.252 47.4106 27.8254 47.6148 27.3465C47.8507 26.8027 47.7358 26.2865 47.447 25.7972C47.3627 25.6549 47.2518 25.5279 47.0752 25.2868C47.2677 25.3567 47.3455 25.3703 47.4073 25.4093C47.8237 25.6734 48.1015 26.0545 48.3035 26.4957C48.3744 26.651 48.4336 26.8121 48.5123 27.0041C48.6688 26.982 48.8285 26.9954 48.9531 26.9356C49.2836 26.7767 49.5998 26.588 49.9202 26.4083C50.063 26.3281 50.2019 26.2413 50.4 26.2186C50.3648 26.2865 50.3244 26.3516 50.2794 26.4135C49.7982 26.9778 49.2709 27.4856 48.5878 27.8072C48.1916 27.993 47.9248 28.3026 47.8071 28.7139C47.7001 29.0853 47.5976 29.4683 47.5722 29.851C47.4675 31.4318 47.7596 32.9529 48.3451 34.4197C48.4408 34.6594 48.568 34.8878 48.6903 35.1162C48.7277 35.1851 48.7983 35.2361 48.8893 35.3336C49.0361 35.1653 49.1587 35.0233 49.2823 34.8826C49.6538 34.4603 50.0172 34.0311 50.4026 33.6225C50.5406 33.4759 50.7 33.3099 51.0009 33.357C50.9033 33.5474 50.8219 33.7144 50.7335 33.8794C50.4872 34.3362 50.2231 34.7842 49.9944 35.2497C49.6366 35.9804 49.4589 36.7555 49.499 37.5739C49.5084 37.7688 49.5107 37.9637 49.5201 38.1587C49.5461 38.6979 49.5292 39.2346 49.3763 39.8041C49.5357 39.8207 49.6655 39.8691 49.7748 39.8399C50.8743 39.552 51.9075 39.1102 52.8001 38.3968C53.5636 37.7864 54.0583 36.9797 54.3941 36.0681C54.7119 35.2091 54.8644 34.3138 54.9936 33.4149C55.1692 32.193 55.2571 30.9634 55.3049 29.7295C55.3189 29.3682 55.2109 29.1207 54.9301 28.8972C54.209 28.3231 53.6387 27.6224 53.2484 26.777C53.3853 26.6672 53.4435 26.8037 53.5125 26.8609C53.8645 27.1487 54.2057 27.4499 54.5616 27.7325C54.7089 27.8494 54.8609 27.9924 55.0821 27.9417C55.2545 27.2848 55.247 27.2595 54.276 25.09C54.4123 24.9902 54.4712 25.1244 54.5297 25.1897C55.2646 26.0058 55.7824 26.9495 56.138 27.9836C56.286 28.4128 56.4028 28.8527 56.541 29.2851C56.5856 29.4244 56.6539 29.5563 56.7339 29.7441C57.0111 29.4663 57.246 29.2175 57.4951 28.9839C57.7316 28.7627 57.9831 28.5567 58.2524 28.3225C58.241 27.2916 58.3751 26.2758 58.8734 25.3171C59.0442 25.447 58.906 25.5666 58.9102 25.6744C58.916 25.8248 58.8877 25.9762 58.8796 26.1273C58.8724 26.2572 58.8718 26.3872 58.8705 26.5171C58.8692 26.6471 58.8679 26.777 58.8731 26.907C58.8748 27.0585 58.8856 27.2097 58.9056 27.3599C58.9258 27.483 58.9762 27.6012 59.0253 27.7608C59.5276 27.5983 59.9381 27.3124 60.4014 27.1555C60.8646 26.9986 61.3301 26.8134 61.9664 26.74C61.6895 26.9106 61.5314 27.0119 61.3694 27.1068C60.2608 27.7565 59.2345 28.5109 58.3396 29.4361C57.8253 29.9676 57.3582 30.5381 57.0348 31.2067C56.866 31.5553 56.7421 31.926 56.6119 32.2924C56.5407 32.4948 56.5046 32.7089 56.5794 32.9685C56.7073 32.9558 56.8416 32.9759 56.9411 32.9262C57.1916 32.8012 57.4291 32.6485 57.6666 32.4994C57.8426 32.3896 58.0114 32.2684 58.2401 32.2112C58.2002 32.2784 58.1568 32.3435 58.1099 32.4061C57.6913 32.9068 57.2362 33.372 56.6708 33.7056C56.3455 33.8986 56.1695 34.1575 56.1211 34.5318C56.0602 35.0032 55.9539 35.469 55.8934 35.9407C55.7405 37.1486 55.2249 38.1609 54.3358 38.9981C53.708 39.5978 52.9867 40.0915 52.2002 40.4601C51.4937 40.7872 50.7657 41.0682 50.0572 41.3918C49.5269 41.6338 48.9941 41.8791 48.4957 42.178C47.3198 42.8781 46.5088 43.8972 45.9974 45.161C45.3488 46.7633 45.1913 48.4289 45.3771 50.1315C45.4139 50.4704 45.5271 50.8086 45.6533 51.1283C45.892 51.7348 46.3205 52.1818 46.9047 52.4794C47.4889 52.777 48.1233 52.9209 48.7709 52.9992C49.9365 53.1369 51.0991 53.1291 52.2718 53.0284C53.8352 52.8943 55.3566 52.5957 56.8344 52.0811C57.3647 51.8966 57.8754 51.6562 58.3897 51.4284C58.501 51.3794 58.5878 51.2751 58.6857 51.1965L58.6789 51.1929Z" fill="#E5BC38"/>
<path d="M61.7559 33.3685C62.1043 33.0254 62.4172 32.7837 62.6436 32.4757C62.8596 32.1833 63.1716 31.8932 63.0245 31.4508C63.2458 31.3903 63.4559 31.3406 63.6605 31.2744C63.8651 31.2081 64.0629 31.1256 64.2916 31.0398C64.3615 31.1912 64.4357 31.3202 64.4829 31.4586C65.0089 33.003 65.2961 34.5939 65.3787 36.2212C65.4763 38.2003 65.3065 40.1522 64.7281 42.0566C63.83 45.0071 62.1908 47.4371 59.6314 49.2038C57.9729 50.3548 56.0699 51.1064 54.0717 51.3996C52.8355 51.5832 51.5797 51.5929 50.3408 51.4285L50.8226 51.2908C54.8774 50.1336 58.0254 47.7919 60.1444 44.1276C61.142 42.4026 61.7191 40.5352 61.9459 38.5538C62.1183 37.0267 62.0773 35.4831 61.8242 33.9672C61.7887 33.7548 61.7741 33.5413 61.7559 33.3685Z" fill="#E5BC38"/>
<path d="M56.8461 20.0645H56.258C55.9548 20.3712 55.8143 20.7877 55.5843 21.1987C55.2014 20.7039 54.8319 20.2221 54.2636 19.9713C53.8914 19.8069 53.5294 19.6035 53.1078 19.5814C53.0706 19.5598 53.0364 19.5335 53.006 19.5031C51.455 17.5029 50.2188 15.3321 49.468 12.9056C48.5816 10.0399 48.5845 7.15536 49.3379 4.26398C49.7076 2.86244 50.2101 1.49928 50.8388 0.192996C50.8741 0.130239 50.9126 0.0694009 50.9543 0.0107422C51.0519 0.177727 50.9651 0.317748 50.9602 0.45322C50.9516 0.582756 50.9351 0.711647 50.9107 0.839169C50.6994 2.164 50.5922 3.50332 50.5903 4.84486C50.5965 8.4451 51.4663 11.8192 53.2578 14.9526C54.1624 16.5358 55.2288 18.0065 56.3657 19.4262C56.5098 19.6084 56.6458 19.7981 56.8461 20.0645Z" fill="#E5BC38"/>
<path d="M19.5198 76.7071C18.2563 76.8257 17.2723 76.5271 16.595 75.5171C16.2096 74.9424 15.8468 74.3528 15.4737 73.7696C15.4038 73.6601 15.3378 73.5484 15.2685 73.4389C14.7688 72.6469 14.4614 72.5059 13.4468 72.6212C13.4185 72.7281 13.3609 72.8486 13.3596 72.9672C13.3525 73.7245 13.3564 74.4817 13.3596 75.2387C13.3603 75.3469 13.3693 75.4548 13.3866 75.5616C13.4448 75.9216 13.6579 76.1383 14.0112 76.2234C14.1986 76.2682 14.3856 76.316 14.57 76.3719C14.5948 76.3793 14.6172 76.444 14.6136 76.4797C14.6106 76.5 14.6032 76.5194 14.5919 76.5366C14.5807 76.5538 14.5659 76.5684 14.5486 76.5795C14.4925 76.6113 14.4298 76.6297 14.3654 76.6331C13.2824 76.6376 12.1995 76.6392 11.1167 76.6379C11.0518 76.641 10.9873 76.6269 10.9296 76.597C10.8816 76.5611 10.8472 76.51 10.832 76.4521C10.8242 76.4261 10.8646 76.3641 10.8971 76.3527C11.0177 76.3083 11.1412 76.272 11.2666 76.2442C11.8388 76.1188 11.995 75.9609 12.0688 75.3901C12.0892 75.1965 12.0973 75.0019 12.0929 74.8073C12.0942 72.9249 12.0931 71.0427 12.0896 69.1606C12.085 68.9018 12.0633 68.6435 12.0246 68.3874C11.9813 68.0723 11.7806 67.8904 11.4778 67.8199C11.2709 67.7718 11.061 67.7351 10.8704 67.6971C10.8229 67.5512 10.8239 67.4404 10.9592 67.4109C11.087 67.3887 11.2167 67.3799 11.3463 67.3849C12.5376 67.3849 13.7289 67.3862 14.9204 67.3888C15.3325 67.3888 15.7421 67.4148 16.1419 67.5298C16.9652 67.7666 17.5846 68.2205 17.7944 69.0963C18.0137 70.0102 17.8107 70.8142 17.1113 71.4627C16.9233 71.6372 16.6933 71.7678 16.4792 71.9139C16.3576 71.9974 16.2291 72.0712 16.0733 72.168C16.1289 72.3031 16.1588 72.4279 16.2255 72.5306C16.771 73.3622 17.3048 74.2027 17.879 75.0142C18.2785 75.5785 18.715 76.1227 19.3789 76.4183C19.4342 76.443 19.4492 76.5544 19.5198 76.7071ZM13.4068 72.0865C14.0945 72.2515 14.897 72.1839 15.3986 71.9188C15.9002 71.6537 16.2421 71.245 16.3885 70.6927C16.5193 70.2091 16.5179 69.6992 16.3846 69.2162C16.2544 68.7399 15.9919 68.3491 15.5489 68.1055C14.9959 67.8011 14.4071 67.7276 13.7893 67.8563C13.5447 67.9073 13.4107 68.0512 13.3746 68.2913C13.3599 68.3989 13.3533 68.5075 13.3547 68.6162C13.3534 69.6558 13.3542 70.6944 13.357 71.732C13.3577 71.8538 13.3908 71.9773 13.4068 72.0865Z" fill="#E5BC38"/>
<path d="M80.6316 76.843C78.7416 76.791 77.3318 76.1581 76.3598 74.7196C74.7206 72.2925 75.6838 68.4726 78.9752 67.4467C80.5415 66.9594 82.0551 67.1244 83.4542 68.023C85.0671 69.0593 85.7434 70.9183 85.4607 72.6921C85.3891 73.1423 85.2867 73.5842 85.0983 73.9997C84.4454 75.4392 83.3196 76.3108 81.7988 76.6763C81.3616 76.7816 80.9049 76.8056 80.6316 76.843ZM84.0473 72.2817C84.079 71.4926 83.9461 70.7054 83.6569 69.9703C83.4194 69.353 83.058 68.8202 82.5545 68.3898C81.0714 67.1211 78.6551 67.2823 77.58 69.3218C77.4841 69.5151 77.3987 69.7135 77.3243 69.916C77.0299 70.66 77.0335 71.4397 77.0641 72.2197C77.0991 73.0885 77.3567 73.9338 77.8123 74.6748C78.1535 75.2401 78.6001 75.7059 79.1824 76.0285C80.7998 76.9248 82.7239 76.383 83.5414 74.7056C83.6354 74.5113 83.7171 74.3112 83.786 74.1066C83.9902 73.5208 84.0789 72.9012 84.0473 72.2817Z" fill="#E5BC38"/>
<path d="M49.4042 74.3798C49.4276 74.2174 49.4604 74.0985 49.4601 73.9793C49.4536 72.4218 49.4428 70.8646 49.4276 69.3076C49.425 69.0714 49.3772 68.8355 49.3495 68.5997C49.2972 68.1543 49.0298 67.9051 48.6085 67.8073C48.4406 67.7683 48.2643 67.7641 48.0991 67.7186C48.034 67.7008 47.9904 67.6124 47.9364 67.5562C47.9995 67.5078 48.0568 67.4467 48.1274 67.4158C48.1833 67.3918 48.2552 67.4028 48.3203 67.4028C49.1864 67.4028 50.0527 67.4036 50.9191 67.4051C51.0238 67.4051 51.1286 67.4305 51.2392 67.4444L51.2603 67.6777C51.1094 67.7102 50.965 67.7358 50.8218 67.769C50.3664 67.8749 50.1169 68.1715 50.0619 68.6279C50.0345 68.8642 50.0197 69.1019 50.0177 69.3397C49.9975 70.9619 49.9802 72.5839 49.9656 74.2057C49.9595 74.9204 49.9656 75.6332 49.9604 76.3469C49.9604 76.4922 49.9884 76.6695 49.814 76.7436C49.6091 76.8303 49.4936 76.6728 49.3811 76.5435C48.4312 75.4482 47.4823 74.352 46.5344 73.2548C45.5585 72.1249 44.5826 70.9951 43.6067 69.8654C43.4691 69.7068 43.3543 69.5178 43.1633 69.4366C42.999 69.4931 43.015 69.6133 43.0153 69.7146C43.0153 71.2718 43.0153 72.8292 43.0296 74.3863C43.0329 74.7307 43.0921 75.0747 43.1308 75.4184C43.1809 75.8603 43.445 76.1156 43.8617 76.2251C44.065 76.2781 44.2941 76.254 44.4931 76.4629C44.419 76.5168 44.363 76.5929 44.3022 76.5961C43.9769 76.6137 43.6516 76.6166 43.3289 76.6185C42.8084 76.6214 42.2879 76.6227 41.7694 76.6185C41.5785 76.6185 41.3878 76.5964 41.2206 76.586C41.15 76.4525 41.1774 76.3807 41.2727 76.3443C41.3727 76.3043 41.4761 76.2733 41.5817 76.2517C42.1142 76.1543 42.3497 75.7947 42.3992 75.2986C42.4548 74.7395 42.5059 74.1774 42.5134 73.616C42.5316 72.2539 42.5241 70.891 42.5238 69.5282C42.5242 69.3552 42.5133 69.1825 42.4912 69.011C42.408 68.3895 42.0589 67.9905 41.4591 67.8112C41.2964 67.7625 41.1286 67.7264 40.9669 67.6738C40.9415 67.6657 40.921 67.6007 40.923 67.563C40.9249 67.5253 40.9497 67.4685 40.9786 67.4577C41.0576 67.4257 41.1416 67.4073 41.2268 67.4035C41.703 67.3983 42.1803 67.4129 42.6558 67.3954C42.9629 67.384 43.1812 67.4876 43.3835 67.7222C44.2026 68.6728 45.0387 69.6094 45.8688 70.5505C46.8707 71.6867 47.8733 72.8225 48.8765 73.9578C49.0125 74.1112 49.1309 74.296 49.4042 74.3798Z" fill="#E5BC38"/>
<path d="M28.8448 69.8157C28.7352 69.7952 28.6242 69.8066 28.5917 69.7618C28.5182 69.6608 28.4759 69.5344 28.4343 69.4138C28.0833 68.3905 27.3513 67.8087 26.299 67.6673C25.8111 67.6024 25.2958 67.59 24.8143 67.6748C23.2392 67.9522 22.2207 68.8924 21.7728 70.4262C21.3922 71.7276 21.5126 72.9998 22.1131 74.2103C22.9894 75.975 24.7089 76.6546 26.4991 76.3512C26.6477 76.3214 26.7928 76.2762 26.932 76.2164C27.3074 76.0673 27.5452 75.7892 27.5599 75.3863C27.5817 74.7817 27.5882 74.1745 27.5521 73.5713C27.5238 73.095 27.3074 72.9075 26.8136 72.8088C26.6227 72.7708 26.4298 72.7438 26.2385 72.7071C26.1256 72.6856 26.0196 72.6343 26.0433 72.5011C26.0671 72.3679 26.1891 72.3627 26.2993 72.3585C26.3426 72.3566 26.3859 72.3562 26.4294 72.3562C27.4255 72.3562 28.4216 72.3572 29.4176 72.3592C29.4982 72.363 29.5785 72.3714 29.658 72.3845C29.781 72.5297 29.7485 72.634 29.6092 72.7116C29.5534 72.7448 29.4925 72.7687 29.429 72.7825C28.9736 72.8689 28.8497 73.1899 28.8516 73.5946C28.8559 74.3727 28.8666 75.1511 28.8757 75.9292C28.8757 76.0348 28.8864 76.1403 28.8926 76.2605C28.8061 76.3093 28.7378 76.3687 28.6594 76.3905C27.4193 76.7128 26.1676 76.9454 24.8761 76.8418C23.7532 76.7518 22.7077 76.4337 21.8021 75.7463C20.683 74.8967 20.0952 73.7577 20.0396 72.3562C20.0243 71.969 20.0263 71.5723 20.092 71.1925C20.3216 69.8635 21.0227 68.8352 22.169 68.1189C22.9318 67.642 23.7659 67.3665 24.6592 67.2486C26.0049 67.0716 27.3733 67.1999 28.6626 67.6238C28.7667 68.3232 28.8864 69.0399 28.8448 69.8157Z" fill="#E5BC38"/>
<path d="M6.23268 73.3074C5.14878 73.3025 4.11531 73.2986 3.08053 73.3123C3.01905 73.4201 2.9657 73.4883 2.93773 73.5657C2.73246 74.1342 2.51484 74.6995 2.33495 75.2761C2.13489 75.9152 2.24679 76.0883 2.88438 76.2429C2.98875 76.2636 3.09 76.2977 3.18561 76.3443C3.22464 76.3657 3.24091 76.4499 3.24416 76.5067C3.24088 76.5271 3.2326 76.5463 3.22005 76.5627C3.20751 76.5791 3.19109 76.5921 3.17227 76.6006C3.09147 76.629 3.00676 76.6448 2.92114 76.6474C2.12025 76.6513 1.31947 76.6519 0.518805 76.649C0.432621 76.6508 0.346975 76.6351 0.267023 76.6029C0.240812 76.5885 0.21834 76.5681 0.201397 76.5435C0.184455 76.5188 0.17351 76.4906 0.169434 76.4609C0.173043 76.4303 0.18333 76.4008 0.199571 76.3745C0.215812 76.3482 0.237614 76.3259 0.263445 76.3089C0.340182 76.2701 0.422853 76.2443 0.50807 76.2325C0.971621 76.1455 1.28358 75.8677 1.48397 75.4555C1.61495 75.1826 1.73835 74.9068 1.85416 74.6283C2.75458 72.4523 3.65328 70.2757 4.55023 68.0984C4.6244 67.9187 4.71288 67.7436 4.77046 67.5588C4.85667 67.2807 5.05054 67.205 5.356 67.2144C5.43309 67.4064 5.5154 67.601 5.58989 67.7992C6.44998 70.0837 7.30964 72.3686 8.16886 74.654C8.26645 74.9168 8.37152 75.1783 8.48798 75.4337C8.68706 75.869 8.98438 76.1906 9.49315 76.254C9.62327 76.2702 9.75144 76.3079 9.79861 76.4538C9.82918 76.549 9.67434 76.6448 9.44761 76.6458C8.51693 76.651 7.58625 76.6494 6.65589 76.6477C6.56945 76.6511 6.48305 76.6402 6.40021 76.6153C6.34849 76.5974 6.27269 76.5266 6.27887 76.4924C6.29188 76.4203 6.33612 76.3242 6.39533 76.2959C6.52968 76.2309 6.68582 76.2144 6.8244 76.1572C7.04332 76.0665 7.11717 75.9233 7.09244 75.6975C7.09023 75.6756 7.08631 75.6538 7.08073 75.6325C6.85335 74.8437 6.53846 74.0916 6.23268 73.3074ZM5.99521 72.642C5.65918 71.5612 5.25906 70.5645 4.90546 69.5522C4.86545 69.4378 4.79779 69.3329 4.71646 69.1714C4.62863 69.2757 4.55739 69.3274 4.53039 69.3966C4.14003 70.4004 3.75531 71.4061 3.37623 72.4137C3.34956 72.4842 3.37981 72.5761 3.38339 72.6528C3.94713 72.7434 5.38137 72.7428 5.99521 72.642Z" fill="#E5BC38"/>
<path d="M40.1061 76.5547C39.9868 76.5765 39.867 76.6162 39.7483 76.6168C38.8391 76.623 37.9296 76.622 37.0204 76.6207C36.934 76.6253 36.8475 76.6143 36.765 76.5882C36.7182 76.57 36.6807 76.5002 36.6632 76.4459C36.655 76.4209 36.6957 76.3575 36.7282 76.3452C36.8678 76.2913 37.0142 76.2559 37.1537 76.2023C37.4332 76.0947 37.5255 75.9391 37.4904 75.6529C37.4877 75.6097 37.4803 75.5669 37.4686 75.5252C37.212 74.7936 36.9647 74.0581 36.6534 73.3716C36.1118 73.2709 34.0185 73.2654 33.4245 73.3603C33.3676 73.4814 33.2921 73.6124 33.2427 73.7527C33.042 74.3235 32.8331 74.892 32.6597 75.471C32.542 75.8641 32.6851 76.0866 33.0751 76.213C33.1978 76.2529 33.3315 76.2598 33.4518 76.3043C33.5201 76.3296 33.5715 76.4017 33.6516 76.469C33.5715 76.5297 33.5273 76.5905 33.4756 76.5989C32.934 76.6759 31.0414 76.6376 30.5957 76.5395C30.6282 76.4635 30.638 76.3735 30.6887 76.3309C30.7502 76.2796 30.8433 76.2585 30.9262 76.2419C31.3888 76.1487 31.6946 75.8634 31.894 75.4531C32.0264 75.1812 32.1542 74.906 32.2681 74.6266C33.1841 72.4097 34.0983 70.1919 35.0107 67.9732C35.0757 67.8134 35.1505 67.6568 35.2123 67.4957C35.2972 67.2741 35.4758 67.2358 35.6782 67.2332C35.8841 67.4031 35.9104 67.6529 35.9924 67.8702C36.8558 70.1541 37.7163 72.439 38.574 74.7251C38.6716 74.9879 38.777 75.2497 38.8993 75.5022C39.086 75.8891 39.3641 76.172 39.8101 76.2578C39.9253 76.2799 40.0287 76.3618 40.1374 76.4163C40.1266 76.4615 40.1166 76.508 40.1061 76.5547ZM36.3421 72.6628C36.2813 72.2404 35.4521 69.785 35.2143 69.3224C35.1889 69.2727 35.119 69.2454 35.0604 69.2006C35.0126 69.2558 34.9557 69.2958 34.9349 69.3494C34.5367 70.3771 34.1422 71.4058 33.7514 72.4357C33.7254 72.5045 33.7478 72.5919 33.7478 72.6631C34.3474 72.7547 35.7663 72.7534 36.3421 72.6628Z" fill="#E5BC38"/>
<path d="M66.2022 76.5343C66.1238 76.5535 66.0454 76.5896 65.9673 76.5892C64.9508 76.5875 63.9344 76.5818 62.9179 76.572C62.8874 76.572 62.8574 76.5217 62.7934 76.4648C62.8493 76.4099 62.8942 76.3374 62.9586 76.3095C63.0764 76.2588 63.2101 76.2462 63.3288 76.1974C63.5728 76.0974 63.659 75.9502 63.6326 75.6884C63.6234 75.5809 63.6007 75.4751 63.5653 75.3732C63.3415 74.7653 63.1138 74.1589 62.8822 73.5539C62.8522 73.4756 62.7969 73.4071 62.7416 73.3139C62.5731 73.2937 62.404 73.2573 62.2345 73.256C61.4987 73.2505 60.7628 73.2632 60.0273 73.2528C59.6815 73.2479 59.461 73.3545 59.3549 73.7141C59.1962 74.2518 58.9932 74.7768 58.8117 75.3079C58.7832 75.3894 58.7625 75.4734 58.7499 75.5587C58.704 75.8937 58.8254 76.0951 59.1422 76.2117C59.3214 76.2767 59.5036 76.3358 59.6832 76.4005C59.6985 76.406 59.7046 76.4362 59.7157 76.4547C59.6933 76.4872 59.6754 76.5483 59.648 76.5522C59.1972 76.6315 57.2847 76.6198 56.8088 76.5408C56.7343 76.4128 56.8039 76.3384 56.9133 76.2936C56.992 76.2611 57.0798 76.2514 57.1631 76.2286C57.3311 76.1839 57.488 76.1049 57.624 75.9966C57.76 75.8884 57.8721 75.7532 57.9532 75.5997C58.0893 75.3541 58.2112 75.1011 58.3185 74.8417C59.2606 72.5676 60.2003 70.2921 61.1376 68.0152C61.2152 67.8139 61.3043 67.6172 61.4047 67.4262C61.4296 67.3782 61.4674 67.3381 61.5138 67.3102C61.5602 67.2824 61.6134 67.268 61.6676 67.2686C61.7217 67.2691 61.7746 67.2847 61.8204 67.3135C61.8662 67.3423 61.9032 67.3832 61.9271 67.4317C61.9997 67.5883 62.0642 67.7486 62.1203 67.9119C62.9878 70.2159 63.8545 72.5199 64.7204 74.8239C64.81 75.0673 64.9123 75.3058 65.0269 75.5386C65.2077 75.9002 65.4699 76.1721 65.8889 76.2614C66.007 76.2864 66.1166 76.3569 66.2279 76.407L66.2022 76.5343ZM59.8224 72.6849C60.3152 72.7824 60.7466 72.7499 61.1727 72.7388C61.6096 72.7284 62.0614 72.8324 62.4856 72.6576C62.4245 72.2268 61.6561 69.9309 61.3731 69.3303C61.3406 69.2598 61.2644 69.2094 61.1991 69.1396C61.1392 69.2094 61.0816 69.2507 61.0602 69.3056C60.6629 70.327 60.2688 71.3497 59.878 72.3737C59.8478 72.4497 59.8468 72.5361 59.8224 72.6849Z" fill="#E5BC38"/>
<path d="M72.4095 76.5279C71.9866 76.5909 69.0264 76.6295 68.5482 76.5779C68.4942 76.572 68.4447 76.5272 68.3595 76.4827C68.5221 76.3014 68.7199 76.3014 68.8985 76.2618C69.512 76.126 69.7001 75.9125 69.7381 75.2963C69.7463 75.1663 69.7453 75.0364 69.7453 74.9064C69.7453 72.7854 69.7444 70.6644 69.7427 68.5434C69.7427 68.3303 69.7287 68.1169 69.7212 67.9002C69.5794 67.8541 69.4776 67.7907 69.378 67.794C68.7948 67.8134 68.2099 67.829 67.6292 67.8856C67.3166 67.9158 67.0596 68.0997 66.9181 68.3937C66.8059 68.6266 66.7193 68.8712 66.6211 69.1107C66.5726 69.2292 66.5287 69.3501 66.4711 69.4641C66.4565 69.4927 66.3963 69.5135 66.3589 69.5109C66.3384 69.5083 66.3188 69.5011 66.3014 69.4898C66.2841 69.4786 66.2695 69.4636 66.2587 69.4459C66.2317 69.3875 66.2171 69.3241 66.2158 69.2598C66.2083 68.5451 66.2955 67.8398 66.3592 67.1439C66.438 67.126 66.4949 67.0952 66.5147 67.1114C66.8589 67.384 67.2545 67.4181 67.6767 67.4155C69.4101 67.4051 71.1436 67.4057 72.8773 67.4174C73.3571 67.4197 73.8288 67.4249 74.2435 67.063C74.4432 67.3193 74.3736 67.5906 74.4081 67.8323C74.4468 68.1104 74.4589 68.3927 74.4696 68.6734C74.479 68.93 74.4715 69.1873 74.4715 69.4248C74.3128 69.5184 74.2328 69.4593 74.1902 69.3455C74.1066 69.1233 74.0434 68.8927 73.9533 68.6734C73.7484 68.1734 73.4078 67.8537 72.8307 67.8404C72.3984 67.8303 71.9671 67.7868 71.5347 67.7787C71.3688 67.7758 71.202 67.8297 71.0019 67.8635C70.9876 68.0876 70.9655 68.2783 70.9655 68.4687C70.9631 70.633 70.9631 72.7973 70.9655 74.9616C70.9617 75.1135 70.9675 75.2654 70.983 75.4165C71.0465 75.9099 71.2644 76.1383 71.7514 76.2514C71.9589 76.2998 72.1639 76.3599 72.3695 76.418C72.3792 76.421 72.3821 76.4531 72.4095 76.5279Z" fill="#E5BC38"/>
<path d="M93.3832 76.5213C93.2358 76.5508 93.1522 76.5824 93.0686 76.5824C91.0754 76.58 89.0824 76.5749 87.0897 76.5671C87.0301 76.5671 86.9709 76.5346 86.9075 76.5174C86.9075 76.3104 87.0835 76.3455 87.185 76.3173C87.9494 76.1045 88.0834 75.97 88.0873 75.2098C88.0978 73.0676 88.0909 70.9253 88.0899 68.7831C88.0907 68.6963 88.0863 68.6095 88.0769 68.5232C88.0265 68.0892 87.8287 67.8576 87.4088 67.7529C87.305 67.727 87.1944 67.7257 87.0867 67.7166C86.979 67.7075 86.8457 67.6941 86.8652 67.5541C86.8831 67.4219 87.0217 67.4277 87.1284 67.4277C88.1693 67.426 89.2092 67.4266 90.248 67.4294C90.329 67.4294 90.4106 67.4684 90.4897 67.4943C90.4988 67.5004 90.5062 67.5086 90.5112 67.5183C90.5163 67.5279 90.5188 67.5387 90.5186 67.5496C90.5111 67.5886 90.5017 67.647 90.4763 67.6591C90.3974 67.6886 90.3155 67.7095 90.232 67.7214C89.5528 67.8403 89.3489 68.0642 89.302 68.7497C89.2945 68.8575 89.2945 68.966 89.2945 69.0745C89.2945 71.0004 89.2958 72.9261 89.2984 74.8518C89.2977 75.0891 89.3202 75.326 89.3658 75.559C89.4256 75.8546 89.6039 76.0665 89.9136 76.1357C90.1029 76.1779 90.2932 76.2331 90.4851 76.2425C90.8524 76.2594 91.2216 76.2568 91.5892 76.2442C92.2691 76.2208 92.7928 75.9193 93.1314 75.3241C93.2814 75.0616 93.4102 74.7874 93.5605 74.5249C93.5833 74.485 93.6763 74.4544 93.7231 74.4674C93.77 74.4804 93.8009 74.5525 93.8338 74.6023C93.8429 74.6221 93.8447 74.6445 93.839 74.6656C93.7144 75.2773 93.5885 75.8887 93.3832 76.5213Z" fill="#E5BC38"/>
<path d="M56.223 76.5221C55.7285 76.6111 53.3499 76.6566 52.6326 76.6014C52.5562 76.5955 52.482 76.5575 52.3652 76.5218C52.4352 76.4399 52.4628 76.3814 52.5097 76.3593C52.5888 76.3242 52.6718 76.2984 52.7569 76.2823C53.5161 76.1059 53.5815 76.0328 53.6456 75.2453C53.6632 75.0299 53.6716 74.8133 53.672 74.5972C53.672 72.8661 53.6707 71.1348 53.6681 69.4035C53.6681 69.1013 53.6391 68.7989 53.617 68.4967C53.5877 68.0942 53.347 67.874 52.9719 67.7866C52.8252 67.7525 52.6684 67.759 52.5243 67.718C52.4615 67.7005 52.4189 67.6108 52.3672 67.5536C52.4322 67.5069 52.4928 67.4237 52.5598 67.4198C52.8402 67.4022 53.1222 67.4058 53.4055 67.4058C54.2071 67.4058 55.0089 67.4058 55.8105 67.4097C55.9167 67.4137 56.022 67.4313 56.1237 67.462C56.1504 67.4692 56.1758 67.5306 56.1768 67.5676C56.1774 67.5884 56.1735 67.6091 56.1654 67.6283C56.1572 67.6475 56.145 67.6647 56.1296 67.6787C56.0732 67.7059 56.013 67.7243 55.951 67.7333C55.7828 67.77 55.6111 67.7934 55.4465 67.8411C55.1693 67.9217 55.0089 68.1192 54.9715 68.4006C54.9293 68.6786 54.9049 68.959 54.8987 69.2401C54.8919 71.1011 54.8912 72.9622 54.8964 74.8233C54.898 75.0392 54.9135 75.2547 54.9429 75.4685C55.0125 75.9899 55.1501 76.1378 55.6488 76.2554C55.775 76.2849 55.9042 76.3073 56.0265 76.3483C56.0782 76.3652 56.114 76.4233 56.223 76.5221Z" fill="#E5BC38"/>
<path d="M53.9345 65.7286C54.1098 65.3969 54.3203 65.1792 54.4875 64.9333C54.6501 64.6945 54.8804 64.4947 55.0011 64.1211C54.6241 64.2442 54.4367 64.4888 54.2029 64.6591C53.9797 64.8215 53.7852 65.0246 53.4953 65.1974C53.4628 65.0814 53.4212 65.0093 53.4251 64.9394C53.5191 63.3212 55.1085 61.8473 56.8635 62.0679C56.9045 62.0785 56.9438 62.0948 56.9803 62.1163C57.5258 63.6494 55.9565 65.7364 53.9345 65.7286Z" fill="#E5BC38"/>
<path d="M0 80.692C0.00910837 80.5718 0.0178914 80.4532 0.0263492 80.3428C0.60343 80.2502 7.78961 80.2538 8.34294 80.3428C8.36181 80.3944 8.39564 80.4516 8.40085 80.5107C8.40605 80.5699 8.38165 80.6319 8.36832 80.7089C8.28146 80.7258 8.19851 80.7554 8.11556 80.7554C5.48042 80.7567 2.8455 80.7555 0.210794 80.7518C0.148011 80.7524 0.0868548 80.7183 0 80.692Z" fill="white"/>
<path d="M93.9564 80.7188H93.4259C91.0902 80.7201 88.7543 80.7209 86.4183 80.7211C86.2258 80.7162 86.0339 80.6996 85.8435 80.6714C85.8158 80.6678 85.7722 80.6064 85.7761 80.5768C85.7836 80.521 85.8113 80.4297 85.8457 80.4219C86.0115 80.3808 86.1812 80.3573 86.3519 80.3517C87.1521 80.3455 87.9524 80.3494 88.7526 80.3517C90.2668 80.3541 91.7808 80.357 93.2948 80.3605C93.4889 80.3581 93.683 80.369 93.8757 80.393C94.0114 80.4108 94.0325 80.5174 93.9564 80.7188Z" fill="white"/>
<path d="M47.7882 24.5933C47.5367 24.3409 47.6281 23.9712 47.3328 23.7386C47.3129 24.0511 47.2957 24.3234 47.2762 24.6307C46.9997 24.5563 46.9086 24.3338 46.7957 24.1385C46.5706 23.7487 46.5182 23.3241 46.5852 22.8897C46.6412 22.5268 46.7638 22.1851 47.0582 21.9424C48.0413 22.342 48.3786 23.5323 47.7882 24.5933Z" fill="#E5BC38"/>
<path d="M51.9889 32.845L52.6037 32.0958C52.2055 32.1316 52.0117 32.4077 51.7277 32.4659C51.5976 32.396 51.6457 32.2842 51.6792 32.1946C51.9928 31.3541 52.8178 30.8217 53.6411 30.9208C53.8174 30.9422 53.9218 31.0533 53.9085 31.2193C53.8233 32.2774 52.8874 32.9886 52.0543 32.9109C52.0422 32.91 52.0302 32.8879 51.9889 32.845Z" fill="#E5BC38"/>
<path d="M50.6492 36.2732L51.5601 35.8766C51.5539 35.8509 51.548 35.8252 51.5422 35.7996H50.6226C50.8356 35.3123 51.2195 35.1498 51.631 35.0325C52.2458 34.8565 52.6976 34.9546 53.2832 35.3899C53.1153 35.8548 52.7816 36.1657 52.3287 36.3492C51.8086 36.5594 51.2868 36.5529 50.6492 36.2732Z" fill="#E5BC38"/>
<path d="M61.7744 24.3292C61.8525 24.9078 61.6527 25.3437 61.2764 25.6975C60.9091 26.0429 60.4833 26.2657 59.8701 26.1634L60.4368 25.4812C60.0789 25.4571 59.9026 25.7518 59.633 25.7703C59.6274 25.3441 59.7741 25.0299 60.1424 24.7226C60.5981 24.3418 61.1186 24.1963 61.7744 24.3292Z" fill="#E5BC38"/>
<path d="M53.611 20.8943C54.6575 21.4482 55.0202 22.4056 54.5599 23.3857L54.1624 22.6921C53.9633 22.9459 54.1868 23.2201 54.0352 23.4757C53.5902 23.2649 53.41 22.8659 53.287 22.4342C53.127 21.8813 53.2376 21.377 53.611 20.8943Z" fill="#E5BC38"/>
<path d="M51.2307 25.849C51.2395 25.542 51.5951 25.4283 51.6211 25.1229C51.316 25.1031 51.1914 25.4683 50.9019 25.4592C50.9344 24.4381 51.7206 23.8 52.8673 23.9014C52.8914 24.0086 52.9473 24.1288 52.9399 24.2461C52.879 25.1697 52.2271 25.784 51.2307 25.849Z" fill="#E5BC38"/>
<path d="M43.1199 25.6416C43.208 25.8992 43.2962 26.1572 43.3824 26.4106C43.2708 26.5168 43.1654 26.457 43.0789 26.408C42.2851 25.9554 41.9807 25.153 42.2428 24.1628C42.3554 24.1628 42.4875 24.1303 42.5981 24.1676C43.3807 24.4201 43.9253 25.2287 43.8798 26.0584C43.8768 26.1123 43.8231 26.1633 43.7734 26.2494L43.2204 25.6078L43.1199 25.6416Z" fill="#E5BC38"/>
<path d="M40.2718 31.6904C40.6696 31.8428 40.9224 32.0972 41.1176 32.4178C41.2867 32.6972 41.3661 33.0215 41.3453 33.3473C41.3342 33.5747 41.358 33.8148 41.1729 33.9918C40.9081 33.8833 41.0011 33.5253 40.6931 33.4395V34.1572C40.5522 34.0756 40.4523 34.0454 40.3931 33.9792C39.793 33.3119 39.7383 32.4646 40.2718 31.6904Z" fill="#E5BC38"/>
<path d="M65.281 25.8858C64.8881 26.763 64.1178 27.0268 63.1604 26.6256C63.2017 26.3719 63.54 26.4589 63.6158 26.2136L63.0342 26.1678C63.5725 25.393 64.4356 25.2835 65.281 25.8858Z" fill="#E5BC38"/>
<path d="M37.4547 38.5753C37.0012 39.4014 36.2186 39.6123 35.2407 39.1809C35.2651 39.073 35.2651 38.9408 35.3224 38.842C35.716 38.1634 36.3344 37.9249 37.1954 38.1046C37.2605 38.2196 37.158 38.2543 37.0946 38.2995C36.9729 38.3865 36.8451 38.4645 36.7218 38.5493C36.7072 38.5594 36.7052 38.588 36.6802 38.652L37.4547 38.5753Z" fill="#E5BC38"/>
<path d="M59.7111 29.7861L59.0605 29.5262C59.4148 29.2179 59.7918 29.1738 60.1757 29.2387C60.6568 29.32 61.065 29.5396 61.3321 30.0243C61.0761 30.3492 60.7329 30.4723 60.337 30.4908C59.8744 30.5122 59.4473 30.4339 59.111 30.072C59.2466 29.8193 59.5332 30.0136 59.7111 29.7861Z" fill="#E5BC38"/>
<path d="M49.6317 25.8874L49.3715 25.2217L49.294 25.2367C49.2732 25.4436 49.2527 25.6509 49.2264 25.914C48.836 25.6801 48.7309 25.3338 48.6766 24.9787C48.6054 24.5119 48.7111 24.0843 49.0803 23.7253C49.511 23.8381 49.6922 24.175 49.8223 24.5375C49.9791 24.98 49.9661 25.4147 49.6317 25.8874Z" fill="#E5BC38"/>
<path d="M57.0403 34.8379C57.7683 34.3 58.632 34.4582 59.1873 35.2304C58.9339 35.6011 58.5468 35.7093 58.1301 35.7177C57.7134 35.7262 57.3246 35.6401 56.9863 35.2304L57.8321 35.1287L57.0403 34.8379Z" fill="#E5BC38"/>
<path d="M44.6801 31.341L44.198 30.9837C44.2357 31.2228 44.2611 31.382 44.2858 31.5402C44.2399 31.5551 44.1915 31.5886 44.169 31.5759C43.4065 31.1474 43.185 30.6182 43.4072 29.7085C43.78 29.653 44.0552 29.8534 44.2933 30.1007C44.6046 30.4255 44.7806 30.8079 44.6801 31.341Z" fill="#E5BC38"/>
<path d="M57.7339 26.3015C57.3029 26.3216 57.0313 26.1179 56.7906 25.872C56.4906 25.5679 56.3599 25.1949 56.3654 24.7531C56.7707 24.5663 57.096 24.7236 57.4031 24.9188C57.7795 25.1582 57.9974 25.5006 58.0579 26.0416L57.4041 25.6582L57.7339 26.3015Z" fill="#E5BC38"/>
<path d="M43.587 36.8823C44.1849 37.5321 44.2376 38.1233 43.7497 38.8566L43.4969 38.2416L43.2754 38.8826C42.9309 38.4973 42.8906 38.1055 42.9794 37.7046C43.0565 37.3498 43.1964 37.0119 43.587 36.8823Z" fill="#E5BC38"/>
<path d="M39.3885 31.0773L39.5701 30.59C39.3524 30.4883 39.3001 30.7996 39.1202 30.7482C39.0746 30.3857 39.1527 30.1329 39.4087 29.8529C39.6969 29.54 40.0489 29.3744 40.4776 29.3942C40.678 30.2544 40.3303 30.8018 39.3885 31.0773Z" fill="#E5BC38"/>
<path d="M41.6489 27.933C41.9056 27.5965 42.2647 27.5029 42.6678 27.5107C43.0441 27.5162 43.3834 27.5997 43.6492 27.9701L43.0451 28.0516C43.169 28.2764 43.3938 28.2579 43.5461 28.3394C43.5786 28.512 43.4524 28.5275 43.3616 28.5587C42.6681 28.7949 42.0634 28.5766 41.6489 27.933Z" fill="#E5BC38"/>
<path d="M46.5465 35.779L45.8719 36.0097L46.4997 36.2085C46.3097 36.4684 46.0615 36.5045 45.8449 36.5224C45.6172 36.5412 45.3735 36.4921 45.1497 36.4285C44.9259 36.3648 44.7164 36.24 44.6201 36.0042C45.1113 35.3856 45.6962 35.2963 46.5465 35.779Z" fill="#E5BC38"/>
<path d="M52.2104 29.5639C52.6821 28.8186 53.311 28.669 54.0972 29.1149L53.5038 29.4109L54.147 29.4989C53.902 29.8482 53.5865 29.9388 53.2361 29.9557C52.8363 29.9755 52.4808 29.8758 52.2104 29.5639Z" fill="#E5BC38"/>
<path d="M49.5432 28.4385L48.9834 28.3566C49.5803 27.7537 50.2319 27.7455 50.874 28.3008C50.5517 28.9866 49.8884 29.1779 49.1138 28.8043C49.1786 28.5996 49.4635 28.6662 49.5432 28.4385Z" fill="#E5BC38"/>
<path d="M49.8988 31.2681C50.2599 31.5072 50.3543 31.8415 50.3754 32.1855C50.3965 32.5295 50.3211 32.8677 50.0088 33.1562L49.8725 32.7251C49.6122 32.7138 49.7394 33.0048 49.554 33.1013C49.4867 32.9844 49.3914 32.8739 49.354 32.744C49.1816 32.1504 49.3527 31.6875 49.8988 31.2681Z" fill="#E5BC38"/>
<path d="M42.6011 32.3297C42.9264 32.0325 43.2549 32.0425 43.577 32.0887C43.9058 32.1361 44.1866 32.292 44.3948 32.6244L43.9143 32.7254L44.2666 33.047C43.9533 33.2657 43.6655 33.177 43.3818 33.0763C43.0188 32.9493 42.7488 32.7241 42.6011 32.3297Z" fill="#E5BC38"/>
<path d="M43.2647 33.8128C43.3623 34.2676 43.2081 34.585 42.929 34.8475C42.7293 35.035 42.51 35.2082 42.1698 35.1191L42.3142 34.6926L41.8565 34.8521C41.824 34.537 41.9742 34.3161 42.1769 34.1325C42.4716 33.8658 42.8093 33.7011 43.2647 33.8128Z" fill="#E5BC38"/>
<path d="M59.3926 23.5803L59.1213 23.7428C58.9388 22.9631 59.231 22.4647 59.9489 22.3218C60.3275 22.9589 60.1873 23.4757 59.4906 23.9484L59.3926 23.5803Z" fill="#E5BC38"/>
<path d="M61.7129 28.1137L62.2034 27.9867L61.8066 27.7476C62.0545 27.5202 62.3241 27.4991 62.5915 27.5527C62.9773 27.6284 63.3241 27.7866 63.5349 28.2024C63.3247 28.4828 63.0261 28.5448 62.7021 28.5503C62.3222 28.5568 61.9865 28.4659 61.7129 28.1137Z" fill="#E5BC38"/>
<path d="M44.5938 24.5804C44.922 24.3393 45.247 24.2964 45.5983 24.3715C45.9678 24.4507 46.0595 24.5125 46.2879 24.8588C46.2228 24.8718 46.1623 24.8851 46.1018 24.8952C46.0413 24.9052 45.9769 24.9114 45.9008 24.9215C45.8751 25.1362 46.1877 25.0872 46.1724 25.2788C45.4893 25.5404 44.9561 25.3198 44.5938 24.5804Z" fill="#E5BC38"/>
<path d="M49.844 29.9478C49.8264 30.2977 49.6634 30.5151 49.4348 30.6882C49.1866 30.876 48.9091 30.9676 48.6056 30.9114C48.4885 30.7321 48.6947 30.6879 48.7211 30.5294L48.2793 30.5063C48.3444 30.4007 48.3818 30.3036 48.4491 30.2357C48.8521 29.8299 49.1446 29.7682 49.844 29.9478Z" fill="#E5BC38"/>
<path d="M46.3002 27.584C46.1981 27.4362 46.1314 27.3391 46.0435 27.2114L45.8412 27.5902C45.5888 27.3813 45.5224 27.1263 45.514 26.843C45.5039 26.5116 45.5491 26.201 45.8412 25.9658C46.1424 26.0467 46.2859 26.2839 46.3841 26.5467C46.5068 26.8742 46.5442 27.2078 46.3002 27.584Z" fill="#E5BC38"/>
<path d="M35.0723 33.1559C35.2079 32.8895 35.4399 32.756 35.7274 32.7135C36.0202 32.6699 36.313 32.6712 36.6246 32.8778L36.2554 33.1546L36.6584 33.3028C36.3982 33.6156 36.0752 33.6062 35.7551 33.5805C35.4747 33.5578 35.351 33.472 35.0723 33.1559Z" fill="#E5BC38"/>
<path d="M55.4709 24.8532L55.1781 25.103C54.9771 24.8298 55.0386 24.5634 55.1309 24.2999C55.2419 23.9822 55.4351 23.7408 55.7871 23.6265C56.0473 23.8678 56.0587 24.1625 56.0307 24.4643C56.0021 24.7733 55.8736 25.0286 55.5776 25.2229C55.5408 25.0926 55.5122 24.9948 55.4709 24.8532Z" fill="#E5BC38"/>
<path d="M50.6672 21.0381C51.1808 21.6261 51.2072 21.9692 50.8227 22.6244C50.8025 22.6244 50.7732 22.6358 50.7638 22.6261C50.6925 22.5549 50.6255 22.4795 50.5481 22.3961L50.3529 22.6842C50.1434 22.4497 50.0927 22.1872 50.1347 21.9104C50.1893 21.565 50.3129 21.2502 50.6672 21.0381Z" fill="#E5BC38"/>
<path d="M60.0244 33.7819C59.2626 33.9525 58.9545 33.8297 58.5723 33.1812H58.9626L58.7948 32.9096C59.1575 32.7865 59.3706 32.8177 59.6636 33.0357C59.9506 33.2501 60.0335 33.4207 60.0244 33.7819Z" fill="#E5BC38"/>
<path d="M39.7297 26.1343C40.4518 26.4702 40.6298 26.7973 40.498 27.5082L40.2205 27.3652C40.1922 27.4689 40.1649 27.5683 40.1376 27.669C39.5468 27.335 39.4086 26.8441 39.7297 26.1343Z" fill="#E5BC38"/>
<path d="M38.3529 29.3268L38.1636 28.9487L37.985 29.3112C37.7609 29.1468 37.7286 28.9285 37.7247 28.6962C37.7215 28.3363 37.7752 28.2239 38.1379 27.8496C38.4059 27.9373 38.509 28.1745 38.5634 28.4168C38.6333 28.7268 38.6434 29.0458 38.3529 29.3268Z" fill="#E5BC38"/>
<path d="M45.8022 29.5152L45.3825 29.5497L45.687 29.8716C44.9333 30.0162 44.648 29.8872 44.2778 29.2641C44.7612 28.8236 45.3142 28.9061 45.8022 29.5152Z" fill="#E5BC38"/>
<path d="M39.7153 34.5056C40.3968 34.6573 40.6261 34.9338 40.6485 35.5806L40.3376 35.5059V35.8162C40.2871 35.8207 40.2364 35.8425 40.21 35.8256C39.7371 35.5208 39.5796 35.0927 39.7153 34.5056Z" fill="#E5BC38"/>
<path d="M40.066 39.897C40.054 39.9659 40.0608 40.0351 40.0312 40.0816C39.8325 40.3951 39.5286 40.5474 39.1708 40.5773C39.0563 40.5867 38.906 40.5448 38.823 40.4698C38.719 40.3752 38.7609 40.2131 38.8416 40.1124C38.9743 39.948 39.1171 39.7765 39.2921 39.6664C39.4405 39.5728 39.6272 39.4714 39.8591 39.576L39.66 39.9334L40.066 39.897Z" fill="#E5BC38"/>
<path d="M57.5366 22.5226L57.2581 22.406C57.2256 22.4846 57.1931 22.5584 57.1628 22.6308C57.1111 22.6181 57.0613 22.6211 57.035 22.5983C56.7139 22.3137 56.6446 21.9486 56.7097 21.5448C56.7422 21.3258 56.8961 21.2524 57.074 21.3667C57.4832 21.6315 57.6056 21.9323 57.5366 22.5226Z" fill="#E5BC38"/>
<path d="M61.6836 31.8436C61.5893 32.0999 61.3668 32.2009 61.1417 32.2575C60.873 32.3241 60.5887 32.3517 60.3105 32.1551L60.5018 31.9355L60.2793 31.712C60.4634 31.4901 60.7259 31.4742 60.9693 31.4872C61.2454 31.5021 61.5291 31.5577 61.6836 31.8436Z" fill="#E5BC38"/>
<path d="M63.41 23.6748C63.6094 23.8941 63.5775 24.1108 63.5258 24.3148C63.45 24.6121 63.2961 24.8629 63.0121 24.997C62.8221 25.011 62.949 24.8203 62.8534 24.7781L62.6175 24.8171C62.5765 24.1943 62.7473 23.9435 63.41 23.6748Z" fill="#E5BC38"/>
<path d="M52.6371 27.0423L52.4019 27.1667C52.4306 27.2161 52.4618 27.2642 52.4855 27.3139C52.4994 27.3504 52.5103 27.388 52.5181 27.4263C51.8873 27.5712 51.697 27.5046 51.3145 26.9777C51.3854 26.9166 51.4495 26.8198 51.535 26.7944C51.9176 26.681 52.2877 26.6817 52.6371 27.0423Z" fill="#E5BC38"/>
<path d="M58.8513 31.849C58.8766 31.7516 58.901 31.6574 58.931 31.5436L58.6792 31.5836C58.6671 31.5466 58.6362 31.5037 58.6466 31.4732C58.7768 31.0508 59.1021 30.877 59.5097 30.8153C59.6456 30.7945 59.7793 30.9186 59.7601 31.0391C59.7279 31.2525 59.6268 31.4495 59.4722 31.6002C59.3018 31.7698 59.2442 31.7925 58.8513 31.849Z" fill="#E5BC38"/>
<path d="M57.0206 28.0343C56.962 27.9216 56.9331 27.8657 56.8992 27.8011L56.6234 27.894C56.5583 27.2644 56.6559 27.0932 57.2538 26.7988C57.4379 26.9164 57.4526 27.1068 57.4386 27.2972C57.4174 27.5821 57.312 27.8297 57.0206 28.0343Z" fill="#E5BC38"/>
<path d="M36.3147 36.0561L36.0545 36.0161L36.008 36.3251C35.55 36.1737 35.346 35.8702 35.3193 35.3771C35.4534 35.3595 35.5796 35.3098 35.6846 35.3352C36.0282 35.4174 36.1524 35.574 36.3147 36.0561Z" fill="#E5BC38"/>
<path d="M53.4647 24.9507C53.8915 25.4055 53.9123 25.6378 53.5824 26.1358L53.3872 25.9835C53.3398 26.0231 53.2923 26.0627 53.2207 26.1219C53.1781 26.0458 53.1163 25.9786 53.102 25.9026C53.0294 25.5117 53.129 25.1872 53.4647 24.9507Z" fill="#E5BC38"/>
<path d="M62.478 29.4663C62.9097 29.5287 63.1878 29.7334 63.2939 30.181C62.8466 30.35 62.5294 30.2203 62.2529 29.886L62.478 29.4663Z" fill="#E5BC38"/>
<path d="M35.0054 37.3986C35.2474 37.0338 35.5493 36.9639 35.9611 37.0529C35.9351 37.1384 35.8918 37.2089 35.896 37.2758C35.9198 37.5812 35.9165 37.6049 35.7259 37.6185C35.4774 37.6357 35.2155 37.6832 35.0054 37.3986Z" fill="#E5BC38"/>
<path d="M36.8434 34.3071V34.7239C36.5409 34.9188 36.2627 34.8626 35.9937 34.6775C35.9677 34.6585 35.9466 34.6335 35.9322 34.6046C35.9179 34.5758 35.9106 34.5439 35.9112 34.5117C35.9117 34.4795 35.9199 34.4479 35.9352 34.4196C35.9504 34.3912 35.9723 34.3669 35.9989 34.3487C36.266 34.1772 36.5402 34.083 36.8434 34.3071Z" fill="#E5BC38"/>
<path d="M38.2962 38.8877C38.3674 39.0501 38.4667 39.1206 38.6648 39.0703C38.6602 39.4127 38.4998 39.6359 38.2175 39.7814C38.1674 39.8071 38.0737 39.8139 38.0369 39.785C37.9781 39.7376 37.912 39.6505 37.9146 39.5829C37.9267 39.297 38.0337 39.0527 38.2962 38.8877Z" fill="#E5BC38"/>
<path d="M36.0039 31.5091C36.3796 31.3142 36.6643 31.3814 36.9235 31.5484C36.8812 31.7063 36.8477 31.8304 36.8009 32.0052C36.4639 32.0653 36.1997 31.9265 36.0039 31.5091Z" fill="#E5BC38"/>
<path d="M37.4327 30.5515C37.2801 30.6165 37.1555 30.725 37.0618 30.7022C36.7632 30.6304 36.6142 30.4073 36.5781 30.1058C37.0039 29.9703 37.0583 29.9966 37.4327 30.5515Z" fill="#E5BC38"/>
<path d="M36.7983 35.834C37.0378 35.4822 37.0378 35.4822 37.4255 35.4857C37.4467 35.5832 37.4678 35.6807 37.4906 35.7853C37.2947 35.9665 37.0807 35.9461 36.7983 35.834Z" fill="#E5BC38"/>
<path d="M58.6841 51.1897L58.8301 51.2251V51.2303L58.6821 51.1929L58.6841 51.1897Z" fill="#E5BC38"/>
<path d="M11.3758 79.1531V79.4523H10.6065V81.972H10.2379V79.4523H9.46436V79.1531H11.3758Z" fill="white"/>
<path d="M18.0092 81.972L17.3385 80.8194H16.8915V81.972H16.5229V79.1531H17.4338C17.6467 79.1531 17.827 79.1895 17.9744 79.2622C18.1113 79.3258 18.2261 79.4286 18.3043 79.5575C18.3851 79.7032 18.4226 79.869 18.4122 80.0352C18.4018 80.2014 18.3441 80.3613 18.2457 80.4958C18.1336 80.6444 17.9655 80.7428 17.7415 80.7911L18.4503 81.972H18.0092ZM16.8915 80.524H17.4341C17.6338 80.524 17.7837 80.4749 17.8837 80.3766C17.9837 80.2782 18.0335 80.1468 18.0333 79.9822C18.0333 79.8152 17.9841 79.6852 17.8856 79.5923C17.7872 79.4994 17.6367 79.4536 17.4341 79.4549H16.8915V80.524Z" fill="white"/>
<path d="M24.0473 79.4525V80.3946H25.0759V80.6991H24.0473V81.6695H25.1975V81.9729H23.6787V79.1494H25.1975V79.4525H24.0473Z" fill="white"/>
<path d="M30.8183 79.4525V80.3946H31.8469V80.6991H30.8183V81.6695H31.9682V81.9729H30.4497V79.1494H31.9682V79.4525H30.8183Z" fill="white"/>
<path d="M43.5575 81.8164C43.3429 81.6952 43.1657 81.5176 43.0451 81.3028C42.9216 81.0749 42.8569 80.8198 42.8569 80.5606C42.8569 80.3015 42.9216 80.0464 43.0451 79.8185C43.1657 79.6037 43.3429 79.426 43.5575 79.3048C43.7777 79.184 44.0249 79.1206 44.2762 79.1206C44.5275 79.1206 44.7747 79.184 44.995 79.3048C45.2089 79.4254 45.3855 79.6024 45.5054 79.8165C45.6275 80.0456 45.6914 80.3011 45.6914 80.5606C45.6914 80.8202 45.6275 81.0757 45.5054 81.3048C45.3854 81.5188 45.2088 81.6958 44.995 81.8164C44.7746 81.9369 44.5274 82.0001 44.2762 82.0001C44.025 82.0001 43.7778 81.9369 43.5575 81.8164ZM44.8066 81.5432C44.9656 81.4506 45.0949 81.3146 45.1791 81.1511C45.2684 80.9667 45.3147 80.7645 45.3147 80.5597C45.3147 80.3548 45.2684 80.1526 45.1791 79.9682C45.0946 79.8062 44.9662 79.6711 44.8086 79.5784C44.6449 79.4882 44.461 79.4408 44.2741 79.4408C44.0872 79.4408 43.9033 79.4882 43.7396 79.5784C43.582 79.6711 43.4536 79.8062 43.3691 79.9682C43.2798 80.1526 43.2335 80.3548 43.2335 80.5597C43.2335 80.7645 43.2798 80.9667 43.3691 81.1511C43.4533 81.3146 43.5826 81.4506 43.7416 81.5432C43.9045 81.6336 44.0878 81.681 44.2741 81.681C44.4604 81.681 44.6437 81.6336 44.8066 81.5432Z" fill="white"/>
<path d="M52.4677 79.1531V79.4523H51.2406V80.4029H52.237V80.7021H51.2406V81.972H50.8721V79.1531H52.4677Z" fill="white"/>
<path d="M63.7499 81.6735H64.7378V81.9727H63.3813V79.1538H63.7499V81.6735Z" fill="white"/>
<path d="M70.1928 79.1531V81.972H69.8242V79.1531H70.1928Z" fill="white"/>
<path d="M77.1098 79.1531V79.4523H75.8827V80.4029H76.8788V80.7021H75.8827V81.972H75.5142V79.1531H77.1098Z" fill="white"/>
<path d="M82.6176 79.4525V80.3946H83.6462V80.6991H82.6176V81.6695H83.7675V81.9729H82.249V79.1494H83.7675V79.4525H82.6176Z" fill="white"/>
</svg>
