<svg width="193" height="177" viewBox="0 0 193 177" fill="none" xmlns="http://www.w3.org/2000/svg">
<path d="M148.594 13.4248C152.548 14.8331 163.803 19.0579 171.342 28.9157C179.183 39.2243 178.089 49.0821 177.589 52.1944" stroke="#E5BC38" strokeWidth="2" stroke-miterlimit="10"/>
<path d="M178.537 88.6968L97.1931 175.221L16.126 88.5137C11.4881 83.9088 7.76652 78.352 5.18374 72.1756C2.60096 65.9991 1.20996 59.3297 1.09386 52.5658C0.977761 45.802 2.13895 39.0825 4.50803 32.809C6.87711 26.5355 10.4055 20.8367 14.8822 16.0531C19.359 11.2696 24.6924 7.49943 30.5635 4.968C36.4347 2.43657 42.7232 1.19581 49.0533 1.31987C55.3833 1.44392 61.625 2.93024 67.4054 5.69001C73.1857 8.44979 78.3861 12.4264 82.6957 17.3821L92.9757 28.3666C93.5442 28.9793 94.2207 29.4657 94.966 29.7975C95.7114 30.1294 96.5109 30.3003 97.3183 30.3003C98.1258 30.3003 98.9253 30.1294 99.6706 29.7975C100.416 29.4657 101.092 28.9793 101.661 28.3666L111.849 17.4807C120.715 8.18446 132.658 3.00461 145.08 3.06758C157.503 3.13056 169.399 8.43128 178.183 17.817C186.967 27.2027 191.927 39.9144 191.986 53.1877C192.045 66.461 187.198 79.2224 178.498 88.6968H178.537Z" stroke="#E5BC38" strokeWidth="2" stroke-miterlimit="10"/>
<path d="M58.2259 73.4333C57.1592 73.4333 56.1659 73.2599 55.2459 72.9133C54.3392 72.5533 53.5459 72.0533 52.8659 71.4133C52.1992 70.7599 51.6792 69.9933 51.3059 69.1133C50.9325 68.2333 50.7459 67.2733 50.7459 66.2333C50.7459 65.1933 50.9325 64.2333 51.3059 63.3533C51.6792 62.4733 52.2059 61.7133 52.8859 61.0733C53.5659 60.4199 54.3592 59.9199 55.2659 59.5733C56.1725 59.2133 57.1659 59.0333 58.2459 59.0333C59.3925 59.0333 60.4392 59.2333 61.3859 59.6333C62.3325 60.0199 63.1325 60.5999 63.7859 61.3733L62.1059 62.9533C61.5992 62.4066 61.0325 61.9999 60.4059 61.7333C59.7792 61.4533 59.0992 61.3133 58.3659 61.3133C57.6325 61.3133 56.9592 61.4333 56.3459 61.6733C55.7459 61.9133 55.2192 62.2533 54.7659 62.6933C54.3259 63.1333 53.9792 63.6533 53.7259 64.2533C53.4859 64.8533 53.3659 65.5133 53.3659 66.2333C53.3659 66.9533 53.4859 67.6133 53.7259 68.2133C53.9792 68.8133 54.3259 69.3333 54.7659 69.7733C55.2192 70.2133 55.7459 70.5533 56.3459 70.7933C56.9592 71.0333 57.6325 71.1533 58.3659 71.1533C59.0992 71.1533 59.7792 71.0199 60.4059 70.7533C61.0325 70.4733 61.5992 70.0533 62.1059 69.4933L63.7859 71.0933C63.1325 71.8533 62.3325 72.4333 61.3859 72.8333C60.4392 73.2333 59.3859 73.4333 58.2259 73.4333ZM66.2771 73.2333V59.2333H72.0371C73.2771 59.2333 74.3371 59.4333 75.2171 59.8333C76.1105 60.2333 76.7971 60.8066 77.2771 61.5533C77.7571 62.2999 77.9971 63.1866 77.9971 64.2133C77.9971 65.2399 77.7571 66.1266 77.2771 66.8733C76.7971 67.6066 76.1105 68.1733 75.2171 68.5733C74.3371 68.9599 73.2771 69.1533 72.0371 69.1533H67.7171L68.8771 67.9733V73.2333H66.2771ZM75.4371 73.2333L71.8971 68.1533H74.6771L78.2371 73.2333H75.4371ZM68.8771 68.2533L67.7171 67.0133H71.9171C73.0638 67.0133 73.9238 66.7666 74.4971 66.2733C75.0838 65.7799 75.3771 65.0933 75.3771 64.2133C75.3771 63.3199 75.0838 62.6333 74.4971 62.1533C73.9238 61.6733 73.0638 61.4333 71.9171 61.4333H67.7171L68.8771 60.1533V68.2533ZM86.926 73.4333C85.006 73.4333 83.4994 72.8933 82.406 71.8133C81.326 70.7333 80.786 69.1733 80.786 67.1333V59.2333H83.386V67.0333C83.386 68.4733 83.6927 69.5199 84.306 70.1733C84.9327 70.8266 85.8127 71.1533 86.946 71.1533C88.0794 71.1533 88.9527 70.8266 89.566 70.1733C90.1794 69.5199 90.486 68.4733 90.486 67.0333V59.2333H93.046V67.1333C93.046 69.1733 92.4994 70.7333 91.406 71.8133C90.326 72.8933 88.8327 73.4333 86.926 73.4333ZM99.0873 65.0533H106.047V67.1933H99.0873V65.0533ZM99.2873 71.0533H107.187V73.2333H96.6873V59.2333H106.907V61.4133H99.2873V71.0533ZM110.086 73.2333V59.2333H112.686V71.0333H120.006V73.2333H110.086ZM123.59 73.2333V61.4333H118.95V59.2333H130.83V61.4333H126.19V73.2333H123.59ZM136.006 73.2333V67.6933L136.586 69.2933L130.506 59.2333H133.286L138.166 67.3333H136.606L141.526 59.2333H144.086L138.006 69.2933L138.606 67.6933V73.2333H136.006ZM74.0673 89.6733H81.0473V91.8733H74.0673V89.6733ZM74.2873 97.2333H71.6873V83.2333H81.9073V85.4133H74.2873V97.2333ZM84.4216 97.2333V83.2333H90.1816C91.4216 83.2333 92.4816 83.4333 93.3616 83.8333C94.255 84.2333 94.9416 84.8066 95.4216 85.5533C95.9016 86.2999 96.1416 87.1866 96.1416 88.2133C96.1416 89.2399 95.9016 90.1266 95.4216 90.8733C94.9416 91.6066 94.255 92.1733 93.3616 92.5733C92.4816 92.9599 91.4216 93.1533 90.1816 93.1533H85.8616L87.0216 91.9733V97.2333H84.4216ZM93.5816 97.2333L90.0416 92.1533H92.8216L96.3816 97.2333H93.5816ZM87.0216 92.2533L85.8616 91.0133H90.0616C91.2083 91.0133 92.0683 90.7666 92.6416 90.2733C93.2283 89.7799 93.5216 89.0933 93.5216 88.2133C93.5216 87.3199 93.2283 86.6333 92.6416 86.1533C92.0683 85.6733 91.2083 85.4333 90.0616 85.4333H85.8616L87.0216 84.1533V92.2533ZM101.451 89.0533H108.411V91.1933H101.451V89.0533ZM101.651 95.0533H109.551V97.2333H99.0506V83.2333H109.271V85.4133H101.651V95.0533ZM114.849 89.0533H121.809V91.1933H114.849V89.0533ZM115.049 95.0533H122.949V97.2333H112.449V83.2333H122.669V85.4133H115.049V95.0533Z" fill="#E5BC38"/>
</svg>
