<svg width="203" height="204" viewBox="0 0 203 204" fill="none" xmlns="http://www.w3.org/2000/svg">
<path d="M153.273 31.9719C153.593 38.3691 135.648 48.423 111.622 55.42C110.227 55.8198 108.816 56.2529 107.381 56.6028C87.4718 61.9588 69.6513 63.5664 61.1153 61.3091C58.4804 60.6094 56.7342 59.5515 56.0716 58.1188L55.7832 56.961L53.3042 46.6072C53.7641 48.5646 56.056 49.939 59.7433 50.6721C66.1044 51.9798 76.5971 51.505 88.9685 49.2727C93.9888 48.3814 99.3209 47.1902 104.809 45.7159C110.297 44.2415 115.66 42.5589 120.532 40.793C132.335 36.5282 141.728 31.6887 146.733 27.3572C149.329 25.1166 150.748 23.0008 150.701 21.1849L152.985 30.8224L153.273 31.9719Z" stroke="#E5BC38" stroke-miterlimit="10"/>
<path d="M156.375 68.3727V126.631C156.375 133.128 133.363 138.4 104.988 138.4C76.6121 138.4 53.5999 133.128 53.5999 126.631V68.3727H53.8805C56.5543 74.2951 78.4129 78.9181 104.988 78.9181C131.562 78.9181 153.421 74.2951 156.095 68.3727H156.375Z" stroke="#E5BC38" stroke-miterlimit="10"/>
<path d="M156.375 67.1481C156.373 67.5742 156.277 67.9937 156.095 68.3726C153.421 74.295 131.555 78.918 104.988 78.918C78.4207 78.918 56.5543 74.295 53.8805 68.3726C53.6981 67.9937 53.6019 67.5742 53.5999 67.1481C53.5999 65.0241 56.0554 63.0333 60.3585 61.3174C68.9336 63.5747 86.7151 61.9754 106.625 56.6361C108.059 56.2529 109.47 55.8531 110.865 55.4532C136.474 56.128 156.375 61.1258 156.375 67.1481Z" stroke="#E5BC38" stroke-miterlimit="10"/>
<path d="M150.795 21.1849C150.841 23.0008 149.423 25.1165 146.827 27.3572C141.822 31.6887 132.428 36.5199 120.626 40.793C115.754 42.5589 110.492 44.2249 104.903 45.7159C99.3132 47.2069 94.0824 48.3814 89.0621 49.2726C76.6907 51.4967 66.1668 51.9631 59.8368 50.672C56.1496 49.9224 53.8577 48.5646 53.3978 46.6071C51.8153 39.8934 72.3252 28.64 99.1962 21.4098C124.571 14.6045 146.554 13.9131 150.257 19.4607C150.34 19.5883 150.416 19.7219 150.483 19.8605L150.795 21.1849Z" stroke="#E5BC38" stroke-miterlimit="10"/>
<rect x="0.740967" y="0.616699" width="201.74" height="202.233" stroke="#E5BC38"/>
<path d="M47.8481 171.567V161.067H52.1681C53.0981 161.067 53.8931 161.217 54.5531 161.517C55.2231 161.817 55.7381 162.247 56.0981 162.807C56.4581 163.367 56.6381 164.032 56.6381 164.802C56.6381 165.572 56.4581 166.237 56.0981 166.797C55.7381 167.357 55.2231 167.787 54.5531 168.087C53.8931 168.387 53.0981 168.537 52.1681 168.537H48.9281L49.7981 167.622V171.567H47.8481ZM49.7981 167.832L48.9281 166.887H52.0781C52.9381 166.887 53.5831 166.707 54.0131 166.347C54.4531 165.977 54.6731 165.462 54.6731 164.802C54.6731 164.132 54.4531 163.617 54.0131 163.257C53.5831 162.897 52.9381 162.717 52.0781 162.717H48.9281L49.7981 161.757V167.832ZM60.3854 165.432H65.6054V167.037H60.3854V165.432ZM60.5354 169.932H66.4604V171.567H58.5854V161.067H66.2504V162.702H60.5354V169.932ZM68.6342 171.567V161.067H72.9542C73.8842 161.067 74.6792 161.217 75.3392 161.517C76.0092 161.817 76.5242 162.247 76.8842 162.807C77.2442 163.367 77.4242 164.032 77.4242 164.802C77.4242 165.572 77.2442 166.237 76.8842 166.797C76.5242 167.347 76.0092 167.772 75.3392 168.072C74.6792 168.362 73.8842 168.507 72.9542 168.507H69.7142L70.5842 167.622V171.567H68.6342ZM75.5042 171.567L72.8492 167.757H74.9342L77.6042 171.567H75.5042ZM70.5842 167.832L69.7142 166.902H72.8642C73.7242 166.902 74.3692 166.717 74.7992 166.347C75.2392 165.977 75.4592 165.462 75.4592 164.802C75.4592 164.132 75.2392 163.617 74.7992 163.257C74.3692 162.897 73.7242 162.717 72.8642 162.717H69.7142L70.5842 161.757V167.832ZM79.6059 171.567V161.067H81.5559V171.567H79.6059ZM89.3159 171.717C88.4959 171.717 87.7409 171.582 87.0509 171.312C86.3609 171.042 85.7609 170.667 85.2509 170.187C84.7409 169.697 84.3459 169.127 84.0659 168.477C83.7859 167.817 83.6459 167.097 83.6459 166.317C83.6459 165.537 83.7859 164.822 84.0659 164.172C84.3459 163.512 84.7409 162.942 85.2509 162.462C85.7609 161.972 86.3609 161.592 87.0509 161.322C87.7409 161.052 88.4909 160.917 89.3009 160.917C90.1209 160.917 90.8709 161.052 91.5509 161.322C92.2409 161.592 92.8409 161.972 93.3509 162.462C93.8609 162.942 94.2559 163.512 94.5359 164.172C94.8159 164.822 94.9559 165.537 94.9559 166.317C94.9559 167.097 94.8159 167.817 94.5359 168.477C94.2559 169.137 93.8609 169.707 93.3509 170.187C92.8409 170.667 92.2409 171.042 91.5509 171.312C90.8709 171.582 90.1259 171.717 89.3159 171.717ZM89.3009 170.007C89.8309 170.007 90.3209 169.917 90.7709 169.737C91.2209 169.557 91.6109 169.302 91.9409 168.972C92.2709 168.632 92.5259 168.242 92.7059 167.802C92.8959 167.352 92.9909 166.857 92.9909 166.317C92.9909 165.777 92.8959 165.287 92.7059 164.847C92.5259 164.397 92.2709 164.007 91.9409 163.677C91.6109 163.337 91.2209 163.077 90.7709 162.897C90.3209 162.717 89.8309 162.627 89.3009 162.627C88.7709 162.627 88.2809 162.717 87.8309 162.897C87.3909 163.077 87.0009 163.337 86.6609 163.677C86.3309 164.007 86.0709 164.397 85.8809 164.847C85.7009 165.287 85.6109 165.777 85.6109 166.317C85.6109 166.847 85.7009 167.337 85.8809 167.787C86.0709 168.237 86.3309 168.632 86.6609 168.972C86.9909 169.302 87.3809 169.557 87.8309 169.737C88.2809 169.917 88.7709 170.007 89.3009 170.007ZM97.0229 171.567V161.067H101.613C102.753 161.067 103.753 161.287 104.613 161.727C105.473 162.167 106.143 162.777 106.623 163.557C107.103 164.337 107.343 165.257 107.343 166.317C107.343 167.367 107.103 168.287 106.623 169.077C106.143 169.857 105.473 170.467 104.613 170.907C103.753 171.347 102.753 171.567 101.613 171.567H97.0229ZM98.9729 169.917H101.523C102.313 169.917 102.993 169.767 103.563 169.467C104.143 169.167 104.588 168.747 104.898 168.207C105.218 167.667 105.378 167.037 105.378 166.317C105.378 165.587 105.218 164.957 104.898 164.427C104.588 163.887 104.143 163.467 103.563 163.167C102.993 162.867 102.313 162.717 101.523 162.717H98.9729V169.917ZM112.076 171.567L116.801 161.067H118.721L123.461 171.567H121.421L117.356 162.102H118.136L114.086 171.567H112.076ZM114.251 169.137L114.776 167.607H120.446L120.971 169.137H114.251ZM126.581 165.897H131.816V167.547H126.581V165.897ZM126.746 171.567H124.796V161.067H132.461V162.702H126.746V171.567ZM136.55 171.567V162.717H133.07V161.067H141.98V162.717H138.5V171.567H136.55ZM145.244 165.432H150.464V167.037H145.244V165.432ZM145.394 169.932H151.319V171.567H143.444V161.067H151.109V162.702H145.394V169.932ZM153.493 171.567V161.067H157.813C158.743 161.067 159.538 161.217 160.198 161.517C160.868 161.817 161.383 162.247 161.743 162.807C162.103 163.367 162.283 164.032 162.283 164.802C162.283 165.572 162.103 166.237 161.743 166.797C161.383 167.347 160.868 167.772 160.198 168.072C159.538 168.362 158.743 168.507 157.813 168.507H154.573L155.443 167.622V171.567H153.493ZM160.363 171.567L157.708 167.757H159.793L162.463 171.567H160.363ZM155.443 167.832L154.573 166.902H157.723C158.583 166.902 159.228 166.717 159.658 166.347C160.098 165.977 160.318 165.462 160.318 164.802C160.318 164.132 160.098 163.617 159.658 163.257C159.228 162.897 158.583 162.717 157.723 162.717H154.573L155.443 161.757V167.832ZM74.0376 189.717C73.2176 189.717 72.4626 189.582 71.7726 189.312C71.0826 189.042 70.4826 188.667 69.9726 188.187C69.4626 187.697 69.0676 187.127 68.7876 186.477C68.5076 185.817 68.3676 185.097 68.3676 184.317C68.3676 183.537 68.5076 182.822 68.7876 182.172C69.0676 181.512 69.4626 180.942 69.9726 180.462C70.4826 179.972 71.0826 179.592 71.7726 179.322C72.4626 179.052 73.2126 178.917 74.0226 178.917C74.8426 178.917 75.5926 179.052 76.2726 179.322C76.9626 179.592 77.5626 179.972 78.0726 180.462C78.5826 180.942 78.9776 181.512 79.2576 182.172C79.5376 182.822 79.6776 183.537 79.6776 184.317C79.6776 185.097 79.5376 185.817 79.2576 186.477C78.9776 187.137 78.5826 187.707 78.0726 188.187C77.5626 188.667 76.9626 189.042 76.2726 189.312C75.5926 189.582 74.8476 189.717 74.0376 189.717ZM74.0226 188.007C74.5526 188.007 75.0426 187.917 75.4926 187.737C75.9426 187.557 76.3326 187.302 76.6626 186.972C76.9926 186.632 77.2476 186.242 77.4276 185.802C77.6176 185.352 77.7126 184.857 77.7126 184.317C77.7126 183.777 77.6176 183.287 77.4276 182.847C77.2476 182.397 76.9926 182.007 76.6626 181.677C76.3326 181.337 75.9426 181.077 75.4926 180.897C75.0426 180.717 74.5526 180.627 74.0226 180.627C73.4926 180.627 73.0026 180.717 72.5526 180.897C72.1126 181.077 71.7226 181.337 71.3826 181.677C71.0526 182.007 70.7926 182.397 70.6026 182.847C70.4226 183.287 70.3326 183.777 70.3326 184.317C70.3326 184.847 70.4226 185.337 70.6026 185.787C70.7926 186.237 71.0526 186.632 71.3826 186.972C71.7126 187.302 72.1026 187.557 72.5526 187.737C73.0026 187.917 73.4926 188.007 74.0226 188.007ZM81.7445 189.567V179.067H86.0645C86.9945 179.067 87.7895 179.217 88.4495 179.517C89.1195 179.817 89.6345 180.247 89.9945 180.807C90.3545 181.367 90.5345 182.032 90.5345 182.802C90.5345 183.572 90.3545 184.237 89.9945 184.797C89.6345 185.357 89.1195 185.787 88.4495 186.087C87.7895 186.387 86.9945 186.537 86.0645 186.537H82.8245L83.6945 185.622V189.567H81.7445ZM83.6945 185.832L82.8245 184.887H85.9745C86.8345 184.887 87.4795 184.707 87.9095 184.347C88.3495 183.977 88.5695 183.462 88.5695 182.802C88.5695 182.132 88.3495 181.617 87.9095 181.257C87.4795 180.897 86.8345 180.717 85.9745 180.717H82.8245L83.6945 179.757V185.832ZM94.2819 183.432H99.5019V185.037H94.2819V183.432ZM94.4319 187.932H100.357V189.567H92.4819V179.067H100.147V180.702H94.4319V187.932ZM102.531 189.567V179.067H104.136L110.721 187.152H109.926V179.067H111.861V189.567H110.256L103.671 181.482H104.466V189.567H102.531ZM114.674 189.567V179.067H116.624V189.567H114.674ZM119.464 189.567V179.067H121.069L127.654 187.152H126.859V179.067H128.794V189.567H127.189L120.604 181.482H121.399V189.567H119.464ZM136.513 189.717C135.693 189.717 134.938 189.587 134.248 189.327C133.568 189.057 132.973 188.682 132.463 188.202C131.953 187.712 131.558 187.137 131.278 186.477C130.998 185.817 130.858 185.097 130.858 184.317C130.858 183.537 130.998 182.817 131.278 182.157C131.558 181.497 131.953 180.927 132.463 180.447C132.983 179.957 133.588 179.582 134.278 179.322C134.968 179.052 135.723 178.917 136.543 178.917C137.433 178.917 138.233 179.062 138.943 179.352C139.663 179.642 140.268 180.067 140.758 180.627L139.528 181.827C139.118 181.417 138.673 181.117 138.193 180.927C137.723 180.727 137.203 180.627 136.633 180.627C136.083 180.627 135.573 180.717 135.103 180.897C134.633 181.077 134.228 181.332 133.888 181.662C133.548 181.992 133.283 182.382 133.093 182.832C132.913 183.282 132.823 183.777 132.823 184.317C132.823 184.847 132.913 185.337 133.093 185.787C133.283 186.237 133.548 186.632 133.888 186.972C134.228 187.302 134.628 187.557 135.088 187.737C135.548 187.917 136.058 188.007 136.618 188.007C137.138 188.007 137.638 187.927 138.118 187.767C138.608 187.597 139.073 187.317 139.513 186.927L140.623 188.382C140.073 188.822 139.433 189.157 138.703 189.387C137.983 189.607 137.253 189.717 136.513 189.717ZM138.778 188.127V184.197H140.623V188.382L138.778 188.127Z" fill="#E5BC38"/>
<path d="M91.3761 114.383V103.983L92.2881 104.927H89.0081V103.183H93.4561V114.383H91.3761ZM95.5338 114.383V112.991L99.9818 108.767C100.355 108.415 100.633 108.106 100.814 107.839C100.995 107.573 101.113 107.327 101.166 107.103C101.23 106.869 101.262 106.65 101.262 106.447C101.262 105.935 101.086 105.541 100.734 105.263C100.382 104.975 99.8645 104.831 99.1818 104.831C98.6378 104.831 98.1418 104.927 97.6938 105.119C97.2565 105.311 96.8778 105.605 96.5578 105.999L95.1018 104.879C95.5392 104.293 96.1258 103.839 96.8618 103.519C97.6085 103.189 98.4405 103.023 99.3578 103.023C100.169 103.023 100.873 103.157 101.47 103.423C102.078 103.679 102.542 104.047 102.862 104.527C103.193 105.007 103.358 105.578 103.358 106.239C103.358 106.602 103.31 106.965 103.214 107.327C103.118 107.679 102.937 108.053 102.67 108.447C102.403 108.842 102.014 109.285 101.502 109.775L97.6778 113.407L97.2458 112.623H103.79V114.383H95.5338ZM105.79 114.383V103.183H107.502L112.398 111.359H111.502L116.318 103.183H118.03L118.046 114.383H116.078L116.062 106.271H116.478L112.382 113.103H111.454L107.294 106.271H107.774V114.383H105.79Z" fill="#E5BC38"/>
</svg>
