<svg width="24" height="24" viewBox="0 0 24 24" fill="none" xmlns="http://www.w3.org/2000/svg">
<path d="M15 20.0002V12.8891C15 12.6534 14.8946 12.4273 14.7071 12.2606C14.5196 12.0939 14.2652 12.0002 14 12.0002H10C9.73478 12.0002 9.48043 12.0939 9.29289 12.2606C9.10536 12.4273 9 12.6534 9 12.8891V20.0002" stroke="#FFF6DA" strokeLinecap="round" strokeLinejoin="round"/>
<path d="M4 10.1579C3.99994 9.89755 4.0563 9.64036 4.16514 9.40423C4.27399 9.16809 4.43271 8.95871 4.63022 8.79067L10.8524 3.423C11.1733 3.15002 11.5799 3.00024 12 3.00024C12.4201 3.00024 12.8267 3.15002 13.1476 3.423L19.3698 8.79067C19.5673 8.95871 19.726 9.16809 19.8349 9.40423C19.9437 9.64036 20.0001 9.89755 20 10.1579V18.2107C20 18.6853 19.8127 19.1405 19.4793 19.4761C19.1459 19.8117 18.6937 20.0002 18.2222 20.0002H5.77778C5.30628 20.0002 4.8541 19.8117 4.5207 19.4761C4.1873 19.1405 4 18.6853 4 18.2107V10.1579Z" stroke="#FFF6DA" strokeLinecap="round" strokeLinejoin="round"/>
</svg>
