<svg width="204" height="204" viewBox="0 0 204 204" fill="none" xmlns="http://www.w3.org/2000/svg">
<path d="M98.1429 140.255H97.6677C89.5594 140.53 66.8483 139.853 46.6519 122.345C16.4859 96.2158 18.4264 55.5303 18.6838 51.394C30.5202 52.357 42.0988 55.5817 52.8692 60.9148C61.3128 65.1091 69.1588 70.5582 76.1743 77.1002C83.2128 84.5597 88.8398 93.399 92.7473 103.134C97.2639 114.879 99.1129 127.6 98.1429 140.255Z" stroke="#E5BC38" stroke-miterlimit="10"/>
<path d="M160.079 116.559C136.873 141.44 107.291 140.805 100.173 140.308L99.1826 140.223C99.6677 122.239 104.271 98.3844 122.042 79.6179C122.933 78.6729 123.834 77.7737 124.745 76.9203C124.745 76.9944 124.745 77.0578 124.745 77.1319C136.269 66.6903 150.145 59.6453 164.999 56.6939H165.177C170.796 55.5895 176.503 55.0758 182.216 55.16C182.414 60.2484 183.255 91.6987 160.079 116.559Z" stroke="#E5BC38" stroke-miterlimit="10"/>
<path d="M124.715 76.9098C123.804 77.7702 122.903 78.6694 122.012 79.6074C104.201 98.3845 99.6373 122.261 99.1522 140.223H99.0928H98.1028C99.0806 127.582 97.2452 114.873 92.7468 103.134C88.836 93.4103 83.2092 84.5821 76.1738 77.132C77.7896 54.7492 86.568 33.6433 101.033 17.3625C115.055 33.7427 123.411 54.7548 124.715 76.9098Z" stroke="#E5BC38" stroke-miterlimit="10"/>
<path d="M97.6676 140.276L56.1758 92.4817" stroke="#E5BC38" stroke-miterlimit="10"/>
<path d="M144.932 92.4817L100.173 140.308" stroke="#E5BC38" stroke-miterlimit="10"/>
<path d="M99.0933 140.213V66.3418" stroke="#E5BC38" stroke-miterlimit="10"/>
<path d="M31.6333 35.2087L51.4436 51.8172" stroke="#E5BC38" stroke-miterlimit="10"/>
<path d="M51.186 20.1343L64.779 50.1565" stroke="#E5BC38" stroke-miterlimit="10"/>
<path d="M74.619 16.3999L74.3623 39.5037" stroke="#E5BC38" stroke-miterlimit="10"/>
<path d="M127.448 16.6749V38.2554" stroke="#E5BC38" stroke-miterlimit="10"/>
<path d="M150.495 20.2716L137.417 49.1831" stroke="#E5BC38" stroke-miterlimit="10"/>
<path d="M170.038 35.9069L150.495 51.6796" stroke="#E5BC38" stroke-miterlimit="10"/>
<path d="M124.715 76.9098C139.843 62.5017 156.802 58.175 164.999 56.694" stroke="#E5BC38" stroke-miterlimit="10"/>
<rect x="1.30273" y="1.2666" width="201.74" height="202.233" stroke="#E5BC38"/>
<path d="M57.4533 164.017C56.3599 164.017 55.3533 163.837 54.4333 163.477C53.5133 163.117 52.7133 162.617 52.0333 161.977C51.3533 161.323 50.8266 160.563 50.4533 159.697C50.0799 158.817 49.8933 157.857 49.8933 156.817C49.8933 155.777 50.0799 154.823 50.4533 153.957C50.8266 153.077 51.3533 152.317 52.0333 151.677C52.7133 151.023 53.5133 150.517 54.4333 150.157C55.3533 149.797 56.3533 149.617 57.4333 149.617C58.5266 149.617 59.5266 149.797 60.4333 150.157C61.3533 150.517 62.1533 151.023 62.8333 151.677C63.5133 152.317 64.0399 153.077 64.4133 153.957C64.7866 154.823 64.9733 155.777 64.9733 156.817C64.9733 157.857 64.7866 158.817 64.4133 159.697C64.0399 160.577 63.5133 161.337 62.8333 161.977C62.1533 162.617 61.3533 163.117 60.4333 163.477C59.5266 163.837 58.5333 164.017 57.4533 164.017ZM57.4333 161.737C58.1399 161.737 58.7933 161.617 59.3933 161.377C59.9933 161.137 60.5133 160.797 60.9533 160.357C61.3933 159.903 61.7333 159.383 61.9733 158.797C62.2266 158.197 62.3533 157.537 62.3533 156.817C62.3533 156.097 62.2266 155.443 61.9733 154.857C61.7333 154.257 61.3933 153.737 60.9533 153.297C60.5133 152.843 59.9933 152.497 59.3933 152.257C58.7933 152.017 58.1399 151.897 57.4333 151.897C56.7266 151.897 56.0733 152.017 55.4733 152.257C54.8866 152.497 54.3666 152.843 53.9133 153.297C53.4733 153.737 53.1266 154.257 52.8733 154.857C52.6333 155.443 52.5133 156.097 52.5133 156.817C52.5133 157.523 52.6333 158.177 52.8733 158.777C53.1266 159.377 53.4733 159.903 53.9133 160.357C54.3533 160.797 54.8733 161.137 55.4733 161.377C56.0733 161.617 56.7266 161.737 57.4333 161.737ZM67.7292 163.817V149.817H73.4892C74.7292 149.817 75.7892 150.017 76.6692 150.417C77.5625 150.817 78.2492 151.39 78.7292 152.137C79.2092 152.883 79.4492 153.77 79.4492 154.797C79.4492 155.823 79.2092 156.71 78.7292 157.457C78.2492 158.19 77.5625 158.757 76.6692 159.157C75.7892 159.543 74.7292 159.737 73.4892 159.737H69.1692L70.3292 158.557V163.817H67.7292ZM76.8892 163.817L73.3492 158.737H76.1292L79.6892 163.817H76.8892ZM70.3292 158.837L69.1692 157.597H73.3692C74.5159 157.597 75.3759 157.35 75.9492 156.857C76.5359 156.363 76.8292 155.677 76.8292 154.797C76.8292 153.903 76.5359 153.217 75.9492 152.737C75.3759 152.257 74.5159 152.017 73.3692 152.017H69.1692L70.3292 150.737V158.837ZM88.8981 164.017C87.8048 164.017 86.7981 163.843 85.8781 163.497C84.9714 163.137 84.1781 162.637 83.4981 161.997C82.8181 161.343 82.2914 160.577 81.9181 159.697C81.5448 158.817 81.3581 157.857 81.3581 156.817C81.3581 155.777 81.5448 154.817 81.9181 153.937C82.2914 153.057 82.8181 152.297 83.4981 151.657C84.1914 151.003 84.9981 150.503 85.9181 150.157C86.8381 149.797 87.8448 149.617 88.9381 149.617C90.1248 149.617 91.1914 149.81 92.1381 150.197C93.0981 150.583 93.9048 151.15 94.5581 151.897L92.9181 153.497C92.3714 152.95 91.7781 152.55 91.1381 152.297C90.5114 152.03 89.8181 151.897 89.0581 151.897C88.3248 151.897 87.6448 152.017 87.0181 152.257C86.3914 152.497 85.8514 152.837 85.3981 153.277C84.9448 153.717 84.5914 154.237 84.3381 154.837C84.0981 155.437 83.9781 156.097 83.9781 156.817C83.9781 157.523 84.0981 158.177 84.3381 158.777C84.5914 159.377 84.9448 159.903 85.3981 160.357C85.8514 160.797 86.3848 161.137 86.9981 161.377C87.6114 161.617 88.2914 161.737 89.0381 161.737C89.7314 161.737 90.3981 161.63 91.0381 161.417C91.6914 161.19 92.3114 160.817 92.8981 160.297L94.3781 162.237C93.6448 162.823 92.7914 163.27 91.8181 163.577C90.8581 163.87 89.8848 164.017 88.8981 164.017ZM91.9181 161.897V156.657H94.3781V162.237L91.9181 161.897ZM95.8273 163.817L102.127 149.817H104.687L111.007 163.817H108.287L102.867 151.197H103.907L98.5073 163.817H95.8273ZM98.7273 160.577L99.4273 158.537H106.987L107.687 160.577H98.7273ZM112.788 163.817V149.817H114.928L123.708 160.597H122.648V149.817H125.228V163.817H123.088L114.308 153.037H115.368V163.817H112.788ZM128.979 163.817V149.817H131.579V163.817H128.979ZM141.846 164.017C140.779 164.017 139.786 163.843 138.866 163.497C137.959 163.137 137.166 162.637 136.486 161.997C135.819 161.343 135.299 160.577 134.926 159.697C134.553 158.817 134.366 157.857 134.366 156.817C134.366 155.777 134.553 154.817 134.926 153.937C135.299 153.057 135.826 152.297 136.506 151.657C137.186 151.003 137.979 150.503 138.886 150.157C139.793 149.797 140.786 149.617 141.866 149.617C143.013 149.617 144.059 149.817 145.006 150.217C145.953 150.603 146.753 151.183 147.406 151.957L145.726 153.537C145.219 152.99 144.653 152.583 144.026 152.317C143.399 152.037 142.719 151.897 141.986 151.897C141.253 151.897 140.579 152.017 139.966 152.257C139.366 152.497 138.839 152.837 138.386 153.277C137.946 153.717 137.599 154.237 137.346 154.837C137.106 155.437 136.986 156.097 136.986 156.817C136.986 157.537 137.106 158.197 137.346 158.797C137.599 159.397 137.946 159.917 138.386 160.357C138.839 160.797 139.366 161.137 139.966 161.377C140.579 161.617 141.253 161.737 141.986 161.737C142.719 161.737 143.399 161.603 144.026 161.337C144.653 161.057 145.219 160.637 145.726 160.077L147.406 161.677C146.753 162.437 145.953 163.017 145.006 163.417C144.059 163.817 143.006 164.017 141.846 164.017ZM48.1491 187.817V173.817H53.9091C55.1491 173.817 56.2091 174.017 57.0891 174.417C57.9825 174.817 58.6691 175.39 59.1491 176.137C59.6291 176.883 59.8691 177.77 59.8691 178.797C59.8691 179.823 59.6291 180.71 59.1491 181.457C58.6691 182.203 57.9825 182.777 57.0891 183.177C56.2091 183.577 55.1491 183.777 53.9091 183.777H49.5891L50.7491 182.557V187.817H48.1491ZM50.7491 182.837L49.5891 181.577H53.7891C54.9358 181.577 55.7958 181.337 56.3691 180.857C56.9558 180.363 57.2491 179.677 57.2491 178.797C57.2491 177.903 56.9558 177.217 56.3691 176.737C55.7958 176.257 54.9358 176.017 53.7891 176.017H49.5891L50.7491 174.737V182.837ZM62.4655 187.817V173.817H68.2255C69.4655 173.817 70.5255 174.017 71.4055 174.417C72.2989 174.817 72.9855 175.39 73.4655 176.137C73.9455 176.883 74.1855 177.77 74.1855 178.797C74.1855 179.823 73.9455 180.71 73.4655 181.457C72.9855 182.19 72.2989 182.757 71.4055 183.157C70.5255 183.543 69.4655 183.737 68.2255 183.737H63.9055L65.0655 182.557V187.817H62.4655ZM71.6255 187.817L68.0855 182.737H70.8655L74.4255 187.817H71.6255ZM65.0655 182.837L63.9055 181.597H68.1055C69.2522 181.597 70.1122 181.35 70.6855 180.857C71.2722 180.363 71.5655 179.677 71.5655 178.797C71.5655 177.903 71.2722 177.217 70.6855 176.737C70.1122 176.257 69.2522 176.017 68.1055 176.017H63.9055L65.0655 174.737V182.837ZM83.6544 188.017C82.5611 188.017 81.5544 187.837 80.6344 187.477C79.7144 187.117 78.9144 186.617 78.2344 185.977C77.5544 185.323 77.0278 184.563 76.6544 183.697C76.2811 182.817 76.0944 181.857 76.0944 180.817C76.0944 179.777 76.2811 178.823 76.6544 177.957C77.0278 177.077 77.5544 176.317 78.2344 175.677C78.9144 175.023 79.7144 174.517 80.6344 174.157C81.5544 173.797 82.5544 173.617 83.6344 173.617C84.7278 173.617 85.7278 173.797 86.6344 174.157C87.5544 174.517 88.3544 175.023 89.0344 175.677C89.7144 176.317 90.2411 177.077 90.6144 177.957C90.9878 178.823 91.1744 179.777 91.1744 180.817C91.1744 181.857 90.9878 182.817 90.6144 183.697C90.2411 184.577 89.7144 185.337 89.0344 185.977C88.3544 186.617 87.5544 187.117 86.6344 187.477C85.7278 187.837 84.7344 188.017 83.6544 188.017ZM83.6344 185.737C84.3411 185.737 84.9944 185.617 85.5944 185.377C86.1944 185.137 86.7144 184.797 87.1544 184.357C87.5944 183.903 87.9344 183.383 88.1744 182.797C88.4278 182.197 88.5544 181.537 88.5544 180.817C88.5544 180.097 88.4278 179.443 88.1744 178.857C87.9344 178.257 87.5944 177.737 87.1544 177.297C86.7144 176.843 86.1944 176.497 85.5944 176.257C84.9944 176.017 84.3411 175.897 83.6344 175.897C82.9278 175.897 82.2744 176.017 81.6744 176.257C81.0878 176.497 80.5678 176.843 80.1144 177.297C79.6744 177.737 79.3278 178.257 79.0744 178.857C78.8344 179.443 78.7144 180.097 78.7144 180.817C78.7144 181.523 78.8344 182.177 79.0744 182.777C79.3278 183.377 79.6744 183.903 80.1144 184.357C80.5544 184.797 81.0744 185.137 81.6744 185.377C82.2744 185.617 82.9278 185.737 83.6344 185.737ZM93.9304 187.817V173.817H100.05C101.57 173.817 102.904 174.11 104.05 174.697C105.197 175.283 106.09 176.097 106.73 177.137C107.37 178.177 107.69 179.403 107.69 180.817C107.69 182.217 107.37 183.443 106.73 184.497C106.09 185.537 105.197 186.35 104.05 186.937C102.904 187.523 101.57 187.817 100.05 187.817H93.9304ZM96.5304 185.617H99.9304C100.984 185.617 101.89 185.417 102.65 185.017C103.424 184.617 104.017 184.057 104.43 183.337C104.857 182.617 105.07 181.777 105.07 180.817C105.07 179.843 104.857 179.003 104.43 178.297C104.017 177.577 103.424 177.017 102.65 176.617C101.89 176.217 100.984 176.017 99.9304 176.017H96.5304V185.617ZM116.474 188.017C114.554 188.017 113.047 187.477 111.954 186.397C110.874 185.317 110.334 183.757 110.334 181.717V173.817H112.934V181.617C112.934 183.057 113.24 184.103 113.854 184.757C114.48 185.41 115.36 185.737 116.494 185.737C117.627 185.737 118.5 185.41 119.114 184.757C119.727 184.103 120.034 183.057 120.034 181.617V173.817H122.594V181.717C122.594 183.757 122.047 185.317 120.954 186.397C119.874 187.477 118.38 188.017 116.474 188.017ZM132.715 188.017C131.648 188.017 130.655 187.843 129.735 187.497C128.828 187.137 128.035 186.637 127.355 185.997C126.688 185.343 126.168 184.577 125.795 183.697C125.422 182.817 125.235 181.857 125.235 180.817C125.235 179.777 125.422 178.817 125.795 177.937C126.168 177.057 126.695 176.297 127.375 175.657C128.055 175.003 128.848 174.503 129.755 174.157C130.662 173.797 131.655 173.617 132.735 173.617C133.882 173.617 134.928 173.817 135.875 174.217C136.822 174.603 137.622 175.183 138.275 175.957L136.595 177.537C136.088 176.99 135.522 176.583 134.895 176.317C134.268 176.037 133.588 175.897 132.855 175.897C132.122 175.897 131.448 176.017 130.835 176.257C130.235 176.497 129.708 176.837 129.255 177.277C128.815 177.717 128.468 178.237 128.215 178.837C127.975 179.437 127.855 180.097 127.855 180.817C127.855 181.537 127.975 182.197 128.215 182.797C128.468 183.397 128.815 183.917 129.255 184.357C129.708 184.797 130.235 185.137 130.835 185.377C131.448 185.617 132.122 185.737 132.855 185.737C133.588 185.737 134.268 185.603 134.895 185.337C135.522 185.057 136.088 184.637 136.595 184.077L138.275 185.677C137.622 186.437 136.822 187.017 135.875 187.417C134.928 187.817 133.875 188.017 132.715 188.017ZM143.45 187.817V176.017H138.81V173.817H150.69V176.017H146.05V187.817H143.45Z" fill="#E5BC38"/>
</svg>
