<svg width="14" height="14" viewBox="0 0 14 14" fill="none" xmlns="http://www.w3.org/2000/svg">
<g clipPath="url(#clip0_37_191)">
<path d="M7.34167 1.50846C7.12293 1.28965 6.82623 1.16669 6.51684 1.16663H2.33317C2.02375 1.16663 1.72701 1.28954 1.50821 1.50833C1.28942 1.72713 1.1665 2.02387 1.1665 2.33329V6.51696C1.16657 6.82635 1.28953 7.12305 1.50834 7.34179L6.58567 12.4191C6.8508 12.6826 7.2094 12.8305 7.58317 12.8305C7.95694 12.8305 8.31554 12.6826 8.58067 12.4191L12.419 8.58079C12.6825 8.31566 12.8303 7.95707 12.8303 7.58329C12.8303 7.20952 12.6825 6.85093 12.419 6.58579L7.34167 1.50846Z" stroke="#FFF6DA" strokeLinecap="round" strokeLinejoin="round"/>
<path d="M4.37516 4.66671C4.53625 4.66671 4.66683 4.53612 4.66683 4.37504C4.66683 4.21396 4.53625 4.08337 4.37516 4.08337C4.21408 4.08337 4.0835 4.21396 4.0835 4.37504C4.0835 4.53612 4.21408 4.66671 4.37516 4.66671Z" fill="#FFF6DA" stroke="#FFF6DA" strokeWidth="2" strokeLinecap="round" strokeLinejoin="round"/>
</g>
<defs>
<clipPath id="clip0_37_191">
<rect width="14" height="14" fill="white"/>
</clipPath>
</defs>
</svg>
